<svg width="256" height="276" viewBox="0 0 256 276" fill="none" xmlns="http://www.w3.org/2000/svg">
<circle cx="128" cy="148" r="121" fill="#ECECEC" stroke="#13A0F0" stroke-width="12"/>
<circle cx="128" cy="148" r="110" stroke="white" stroke-width="10"/>
<mask id="mask0_423_486" style="mask-type:alpha" maskUnits="userSpaceOnUse" x="23" y="13" width="242" height="240">
<path d="M233 148C233 205.99 185.99 253 128 253C70.0101 253 23 205.99 23 148C23 90.0102 70.0101 43 128 43C156.092 43 241.157 -0.467907 260 17.5C280.054 36.623 233 118.102 233 148Z" fill="#D9D9D9"/>
</mask>
<g mask="url(#mask0_423_486)">
<mask id="path-4-outside-1_423_486" maskUnits="userSpaceOnUse" x="26.5205" y="1.88222" width="231.131" height="273.723" fill="black">
<rect fill="white" x="26.5205" y="1.88222" width="231.131" height="273.723"/>
<path fill-rule="evenodd" clip-rule="evenodd" d="M208.245 85.867C210.368 85.3776 212.405 84.908 214.282 84.5484C214.395 94.248 206.645 97.7342 197.979 98.942C198.295 100.175 198.545 101.464 198.724 102.816C200.854 102.442 202.942 101.873 204.965 101.197C204.88 107.147 202.554 109.754 198.989 110.745C198.654 117.02 197.127 124.437 194.17 133.389L186.843 129.379C187.589 130.839 188.273 132.601 188.912 134.849C194.192 137.626 199.07 140.128 203.557 142.43C209.674 145.567 215.064 148.332 219.759 150.916C223.494 152.971 221.593 163.846 215.524 160.566C212.899 159.147 209.18 157.217 204.691 154.909C205.317 155.536 205.913 156.211 206.476 156.93C211.856 163.811 208.583 176.266 199.471 177.402C198.861 177.478 198.245 177.498 197.632 177.466C196.289 180.935 192.398 183.333 188.253 183.953C188.444 184.702 188.515 185.176 188.515 185.176C192.113 188.525 192.576 195.269 189.081 198.985C184.498 203.859 175.434 201.704 170.577 196.538C163.229 203.961 156.774 211.324 156.392 221.15C155.444 245.575 169.457 252.933 169.457 252.933L95.473 253.757C95.473 253.757 89.4287 232.248 89.3905 214.172C89.3566 198.125 101.798 171.694 127.275 162.953C122.802 162.687 114.064 163.494 105.173 164.315L105.173 164.315C97.1684 165.055 89.04 165.806 83.7893 165.795C74.9231 165.776 56.8922 163.717 47.102 161.16C45.1928 155.399 42.453 146.38 46.9832 135.617C50.5368 127.175 60.567 113.558 74.9474 104.239C73.4115 102.454 72.3303 100.326 72.0141 98.0881C70.8471 89.8272 74.9578 82.5818 83.4942 82.5635C84.2506 82.5618 84.9454 82.625 85.5835 82.7436C83.4376 81.0618 81.7834 79.6916 80.7742 78.7422C73.2874 71.6998 77.1039 63.8611 88.2188 71.2418C91.2911 73.2819 96.1691 76.655 102.076 80.7396C108.025 84.8535 115.019 89.6892 122.262 94.6119C125.436 94.9144 128.563 95.3319 131.618 95.8528C125.237 91.4013 117.948 86.3665 110.589 81.3831C128.546 53.4564 151.376 60.0914 170.438 71.0391C170.681 68.997 171.192 67.081 172.166 65.3083C175.55 59.1488 178.275 58.715 183.57 57.8726C186.867 57.3481 191.159 56.6651 197.225 54.3435C205.023 51.3593 217.179 44.5052 227.585 38.6373C238.424 32.5252 247.366 27.483 247.51 28.9987C250.14 56.7573 207.24 66.6024 187.713 71.0835C185.115 71.6798 182.931 72.181 181.322 72.6169C194.163 76.1984 227.83 63.2219 234.535 59.1577C237.503 76.7279 208.593 83.5464 190.268 85.3324C191.226 86.3376 192.117 87.38 192.936 88.4694C197.872 88.2578 203.292 87.0086 208.245 85.867ZM101.356 94.4327C97.7276 91.8352 94.3352 89.3628 91.3601 87.1445C93.0587 90.5829 92.6464 94.7002 92.6464 94.7002C92.9079 95.0888 93.1304 95.5051 93.3145 95.9425C95.9184 95.2511 98.6013 94.7373 101.356 94.4327ZM194.511 149.69C193.505 149.175 192.481 148.65 191.44 148.116C191.509 148.633 191.579 149.162 191.648 149.703C192.6 149.592 193.558 149.59 194.511 149.69Z"/>
</mask>
<path fill-rule="evenodd" clip-rule="evenodd" d="M208.245 85.867C210.368 85.3776 212.405 84.908 214.282 84.5484C214.395 94.248 206.645 97.7342 197.979 98.942C198.295 100.175 198.545 101.464 198.724 102.816C200.854 102.442 202.942 101.873 204.965 101.197C204.88 107.147 202.554 109.754 198.989 110.745C198.654 117.02 197.127 124.437 194.17 133.389L186.843 129.379C187.589 130.839 188.273 132.601 188.912 134.849C194.192 137.626 199.07 140.128 203.557 142.43C209.674 145.567 215.064 148.332 219.759 150.916C223.494 152.971 221.593 163.846 215.524 160.566C212.899 159.147 209.18 157.217 204.691 154.909C205.317 155.536 205.913 156.211 206.476 156.93C211.856 163.811 208.583 176.266 199.471 177.402C198.861 177.478 198.245 177.498 197.632 177.466C196.289 180.935 192.398 183.333 188.253 183.953C188.444 184.702 188.515 185.176 188.515 185.176C192.113 188.525 192.576 195.269 189.081 198.985C184.498 203.859 175.434 201.704 170.577 196.538C163.229 203.961 156.774 211.324 156.392 221.15C155.444 245.575 169.457 252.933 169.457 252.933L95.473 253.757C95.473 253.757 89.4287 232.248 89.3905 214.172C89.3566 198.125 101.798 171.694 127.275 162.953C122.802 162.687 114.064 163.494 105.173 164.315L105.173 164.315C97.1684 165.055 89.04 165.806 83.7893 165.795C74.9231 165.776 56.8922 163.717 47.102 161.16C45.1928 155.399 42.453 146.38 46.9832 135.617C50.5368 127.175 60.567 113.558 74.9474 104.239C73.4115 102.454 72.3303 100.326 72.0141 98.0881C70.8471 89.8272 74.9578 82.5818 83.4942 82.5635C84.2506 82.5618 84.9454 82.625 85.5835 82.7436C83.4376 81.0618 81.7834 79.6916 80.7742 78.7422C73.2874 71.6998 77.1039 63.8611 88.2188 71.2418C91.2911 73.2819 96.1691 76.655 102.076 80.7396C108.025 84.8535 115.019 89.6892 122.262 94.6119C125.436 94.9144 128.563 95.3319 131.618 95.8528C125.237 91.4013 117.948 86.3665 110.589 81.3831C128.546 53.4564 151.376 60.0914 170.438 71.0391C170.681 68.997 171.192 67.081 172.166 65.3083C175.55 59.1488 178.275 58.715 183.57 57.8726C186.867 57.3481 191.159 56.6651 197.225 54.3435C205.023 51.3593 217.179 44.5052 227.585 38.6373C238.424 32.5252 247.366 27.483 247.51 28.9987C250.14 56.7573 207.24 66.6024 187.713 71.0835C185.115 71.6798 182.931 72.181 181.322 72.6169C194.163 76.1984 227.83 63.2219 234.535 59.1577C237.503 76.7279 208.593 83.5464 190.268 85.3324C191.226 86.3376 192.117 87.38 192.936 88.4694C197.872 88.2578 203.292 87.0086 208.245 85.867ZM101.356 94.4327C97.7276 91.8352 94.3352 89.3628 91.3601 87.1445C93.0587 90.5829 92.6464 94.7002 92.6464 94.7002C92.9079 95.0888 93.1304 95.5051 93.3145 95.9425C95.9184 95.2511 98.6013 94.7373 101.356 94.4327ZM194.511 149.69C193.505 149.175 192.481 148.65 191.44 148.116C191.509 148.633 191.579 149.162 191.648 149.703C192.6 149.592 193.558 149.59 194.511 149.69Z" fill="#002D59"/>
<path d="M214.282 84.5484L222.281 84.455L222.17 74.8915L212.776 76.6914L214.282 84.5484ZM208.245 85.867L210.041 93.6626L210.041 93.6626L208.245 85.867ZM197.979 98.942L196.875 91.0186L188.008 92.2544L190.229 100.927L197.979 98.942ZM198.724 102.816L190.794 103.869L191.891 112.135L200.105 110.696L198.724 102.816ZM204.965 101.197L212.964 101.312L213.126 90.0357L202.43 93.6094L204.965 101.197ZM198.989 110.745L196.846 103.037L191.307 104.578L191.001 110.318L198.989 110.745ZM194.17 133.389L190.329 140.407L198.754 145.018L201.766 135.898L194.17 133.389ZM186.843 129.379L190.683 122.361L167.902 109.894L179.719 133.019L186.843 129.379ZM188.912 134.849L181.217 137.037L182.155 140.333L185.188 141.929L188.912 134.849ZM203.557 142.43L207.209 135.312L207.209 135.312L203.557 142.43ZM219.759 150.916L215.902 157.925L215.902 157.925L219.759 150.916ZM215.524 160.566L219.328 153.528L219.328 153.528L215.524 160.566ZM204.691 154.909L208.349 147.794L199.027 160.558L204.691 154.909ZM206.476 156.93L200.173 161.858L200.174 161.858L206.476 156.93ZM199.471 177.402L200.461 185.341L200.461 185.341L199.471 177.402ZM197.632 177.466L198.041 169.477L192.26 169.181L190.171 174.579L197.632 177.466ZM188.253 183.953L187.07 176.041L178.311 177.351L180.502 185.932L188.253 183.953ZM188.515 185.176L180.602 186.353L181.014 189.124L183.065 191.032L188.515 185.176ZM189.081 198.985L194.909 204.466L194.909 204.466L189.081 198.985ZM170.577 196.538L176.405 191.058L170.725 185.017L164.891 190.91L170.577 196.538ZM156.392 221.15L164.386 221.46L164.386 221.46L156.392 221.15ZM169.457 252.933L169.546 260.932L173.176 245.849L169.457 252.933ZM95.473 253.757L87.7713 255.921L89.4303 261.825L95.5621 261.756L95.473 253.757ZM89.3905 214.172L97.3905 214.155L89.3905 214.172ZM127.275 162.953L129.871 170.52L127.751 154.967L127.275 162.953ZM105.173 164.315L104.437 156.349L104.242 156.367L104.047 156.395L105.173 164.315ZM105.173 164.315L105.909 172.281L106.104 172.263L106.299 172.236L105.173 164.315ZM83.7893 165.795L83.8058 157.795L83.8058 157.795L83.7893 165.795ZM47.102 161.16L39.5082 163.676L40.8754 167.802L45.0803 168.9L47.102 161.16ZM46.9832 135.617L54.3567 138.721L54.3567 138.721L46.9832 135.617ZM74.9474 104.239L79.2979 110.953L86.9893 105.969L81.0115 99.0213L74.9474 104.239ZM72.0141 98.0881L64.0928 99.2072L64.0928 99.2072L72.0141 98.0881ZM83.4942 82.5635L83.4771 74.5635L83.477 74.5635L83.4942 82.5635ZM85.5835 82.7436L84.1221 90.609L90.5185 76.4471L85.5835 82.7436ZM80.7742 78.7422L86.2555 72.9151L86.2554 72.9151L80.7742 78.7422ZM88.2188 71.2418L83.7934 77.9063L83.7934 77.9063L88.2188 71.2418ZM102.076 80.7396L106.626 74.1596L106.626 74.1596L102.076 80.7396ZM122.262 94.6119L117.766 101.229L119.462 102.381L121.503 102.576L122.262 94.6119ZM131.618 95.8528L130.274 103.739L136.195 89.2913L131.618 95.8528ZM110.589 81.3831L103.86 77.0564L99.6346 83.6272L106.103 88.0073L110.589 81.3831ZM170.438 71.0391L166.453 77.9763L176.953 84.0063L178.382 71.9834L170.438 71.0391ZM172.166 65.3083L179.178 69.1601L179.178 69.1601L172.166 65.3083ZM183.57 57.8726L182.313 49.972L182.313 49.972L183.57 57.8726ZM197.225 54.3435L194.366 46.872L194.366 46.872L197.225 54.3435ZM227.585 38.6373L223.656 31.6688L223.656 31.6688L227.585 38.6373ZM247.51 28.9987L255.474 28.2441L255.474 28.244L247.51 28.9987ZM187.713 71.0835L189.502 78.8808L189.502 78.8808L187.713 71.0835ZM181.322 72.6169L179.23 64.8955L151.148 72.5064L179.173 80.3228L181.322 72.6169ZM234.535 59.1577L242.423 57.825L240.46 46.2105L230.388 52.3165L234.535 59.1577ZM190.268 85.3324L189.492 77.3701L173.155 78.9623L184.475 90.8492L190.268 85.3324ZM192.936 88.4694L186.541 93.2765L189.071 96.6425L193.278 96.4621L192.936 88.4694ZM101.356 94.4327L102.235 102.384L123.001 100.089L106.013 87.9276L101.356 94.4327ZM91.3601 87.1445L96.1422 80.7311L84.1876 90.6877L91.3601 87.1445ZM92.6464 94.7002L84.6862 93.9029L84.3986 96.774L86.0099 99.1676L92.6464 94.7002ZM93.3145 95.9425L85.9411 99.0462L88.6411 105.461L95.3675 103.675L93.3145 95.9425ZM194.511 149.69L193.675 157.646L198.158 142.57L194.511 149.69ZM191.44 148.116L195.09 140.998L181.464 134.01L183.512 149.186L191.44 148.116ZM191.648 149.703L183.712 150.715L184.714 158.57L192.578 157.649L191.648 149.703ZM212.776 76.6914C210.726 77.0843 208.536 77.5901 206.448 78.0714L210.041 93.6626C212.2 93.1651 214.085 92.7317 215.787 92.4055L212.776 76.6914ZM199.084 106.865C203.921 106.191 209.598 104.768 214.195 101.35C219.263 97.5831 222.368 91.8627 222.281 84.455L206.282 84.6419C206.298 85.9688 206.048 86.7318 205.831 87.1714C205.614 87.6097 205.27 88.0486 204.65 88.5092C203.234 89.5616 200.703 90.485 196.875 91.0186L199.084 106.865ZM206.655 101.763C206.435 100.109 206.126 98.5081 205.729 96.9572L190.229 100.927C190.464 101.842 190.654 102.82 190.794 103.869L206.655 101.763ZM202.43 93.6094C200.688 94.1915 198.993 94.6467 197.343 94.9358L200.105 110.696C202.715 110.238 205.197 109.554 207.5 108.785L202.43 93.6094ZM201.133 118.453C204.308 117.57 207.562 115.749 209.888 112.343C212.109 109.09 212.908 105.23 212.964 101.312L196.966 101.082C196.937 103.114 196.53 103.533 196.676 103.319C196.756 103.201 196.881 103.079 197.001 103C197.1 102.934 197.085 102.971 196.846 103.037L201.133 118.453ZM201.766 135.898C204.866 126.514 206.593 118.371 206.978 111.172L191.001 110.318C190.715 115.669 189.388 122.36 186.574 130.881L201.766 135.898ZM183.002 136.397L190.329 140.407L198.011 126.372L190.683 122.361L183.002 136.397ZM196.607 132.661C195.859 130.029 195 127.761 193.966 125.739L179.719 133.019C180.177 133.917 180.687 135.172 181.217 137.037L196.607 132.661ZM185.188 141.929C190.51 144.728 195.422 147.248 199.906 149.548L207.209 135.312C202.718 133.009 197.875 130.524 192.637 127.769L185.188 141.929ZM199.906 149.548C206.053 152.701 211.33 155.409 215.902 157.925L223.616 143.907C218.798 141.256 213.295 138.434 207.209 135.312L199.906 149.548ZM215.902 157.925C214.906 157.376 214.332 156.658 214.045 156.182C213.769 155.724 213.697 155.398 213.683 155.325C213.665 155.236 213.676 155.239 213.672 155.318C213.67 155.35 213.666 155.382 213.662 155.41C213.657 155.439 213.652 155.453 213.653 155.45C213.654 155.448 213.664 155.415 213.691 155.355C213.718 155.296 213.77 155.193 213.859 155.058C214.029 154.804 214.414 154.32 215.123 153.891C215.888 153.427 216.818 153.16 217.762 153.179C218.654 153.197 219.202 153.46 219.328 153.528L211.72 167.603C215.231 169.501 219.565 169.909 223.42 167.571C226.711 165.575 228.282 162.379 228.983 160.033C229.722 157.562 229.893 154.785 229.37 152.179C228.885 149.759 227.458 146.021 223.616 143.907L215.902 157.925ZM219.328 153.528C216.621 152.065 212.834 150.1 208.349 147.794L201.034 162.024C205.527 164.334 209.177 166.229 211.72 167.603L219.328 153.528ZM212.778 152.003C212.021 151.035 211.212 150.118 210.356 149.259L199.027 160.558C199.421 160.953 199.805 161.387 200.173 161.858L212.778 152.003ZM200.461 185.341C208.915 184.286 214.086 177.979 216.045 171.704C217.968 165.541 217.363 157.867 212.778 152.003L200.174 161.858C200.968 162.875 201.417 164.868 200.771 166.937C200.161 168.893 199.14 169.381 198.481 169.464L200.461 185.341ZM197.222 185.456C198.279 185.51 199.363 185.478 200.461 185.341L198.481 169.464C198.358 169.479 198.212 169.486 198.041 169.477L197.222 185.456ZM189.436 191.865C195.312 190.986 202.362 187.409 205.092 180.354L190.171 174.579C190.219 174.454 190.158 174.718 189.543 175.13C188.936 175.536 188.059 175.893 187.07 176.041L189.436 191.865ZM188.515 185.176C196.428 184 196.428 183.999 196.428 183.998C196.428 183.998 196.428 183.997 196.428 183.997C196.427 183.996 196.427 183.995 196.427 183.994C196.427 183.993 196.427 183.991 196.426 183.989C196.426 183.985 196.425 183.982 196.425 183.978C196.423 183.97 196.422 183.962 196.421 183.953C196.418 183.935 196.415 183.916 196.412 183.894C196.405 183.851 196.396 183.801 196.387 183.743C196.367 183.627 196.34 183.481 196.307 183.309C196.24 182.965 196.142 182.511 196.004 181.974L180.502 185.932C180.556 186.144 180.589 186.302 180.605 186.382C180.613 186.422 180.616 186.442 180.615 186.438C180.615 186.436 180.614 186.429 180.611 186.415C180.61 186.407 180.609 186.399 180.607 186.389C180.607 186.383 180.606 186.378 180.605 186.372C180.604 186.369 180.604 186.366 180.603 186.363C180.603 186.361 180.603 186.359 180.603 186.358C180.603 186.357 180.602 186.356 180.602 186.355C180.602 186.355 180.602 186.354 180.602 186.354C180.602 186.353 180.602 186.353 188.515 185.176ZM194.909 204.466C198.439 200.713 199.662 195.819 199.448 191.543C199.234 187.287 197.555 182.661 193.965 179.32L183.065 191.032C183.049 191.017 183.143 191.102 183.253 191.359C183.363 191.618 183.448 191.961 183.468 192.343C183.511 193.206 183.218 193.542 183.253 193.505L194.909 204.466ZM164.748 202.018C168.395 205.897 173.468 208.558 178.614 209.417C183.748 210.275 190.215 209.457 194.909 204.466L183.253 193.505C183.239 193.52 183.227 193.53 183.202 193.544C183.173 193.561 183.097 193.599 182.952 193.636C182.643 193.716 182.074 193.774 181.249 193.636C179.502 193.344 177.615 192.345 176.405 191.058L164.748 202.018ZM164.386 221.46C164.633 215.103 168.734 209.772 176.262 202.166L164.891 190.91C157.724 198.15 148.915 207.544 148.398 220.84L164.386 221.46ZM169.457 252.933C173.176 245.849 173.181 245.852 173.185 245.854C173.187 245.855 173.192 245.858 173.195 245.859C173.201 245.862 173.206 245.866 173.212 245.869C173.223 245.874 173.234 245.88 173.244 245.885C173.263 245.896 173.279 245.905 173.292 245.912C173.319 245.927 173.333 245.935 173.337 245.937C173.343 245.941 173.305 245.919 173.229 245.869C173.077 245.77 172.775 245.562 172.373 245.23C171.569 244.567 170.37 243.416 169.148 241.649C166.778 238.223 163.978 231.993 164.386 221.46L148.398 220.84C147.859 234.733 151.591 244.394 155.99 250.752C158.153 253.878 160.398 256.093 162.192 257.573C163.088 258.312 163.874 258.87 164.484 259.268C164.79 259.467 165.052 259.627 165.263 259.751C165.369 259.813 165.462 259.865 165.542 259.909C165.581 259.931 165.618 259.951 165.65 259.969C165.667 259.978 165.682 259.986 165.697 259.994C165.704 259.998 165.711 260.001 165.718 260.005C165.722 260.007 165.727 260.01 165.729 260.01C165.733 260.013 165.738 260.016 169.457 252.933ZM95.5621 261.756L169.546 260.932L169.368 244.933L95.3838 245.757L95.5621 261.756ZM81.3905 214.189C81.4112 223.984 83.0435 234.464 84.5991 242.301C85.3854 246.262 86.1703 249.637 86.7609 252.03C87.0565 253.228 87.3044 254.184 87.4805 254.848C87.5686 255.18 87.6389 255.44 87.6883 255.621C87.713 255.711 87.7325 255.782 87.7465 255.832C87.7535 255.857 87.7591 255.877 87.7632 255.892C87.7653 255.9 87.767 255.906 87.7683 255.911C87.769 255.913 87.7696 255.915 87.7701 255.917C87.7703 255.918 87.7706 255.919 87.7708 255.919C87.771 255.92 87.7713 255.921 95.473 253.757C103.175 251.593 103.175 251.593 103.175 251.594C103.175 251.594 103.175 251.595 103.175 251.595C103.175 251.595 103.175 251.595 103.175 251.595C103.175 251.595 103.175 251.593 103.174 251.59C103.172 251.584 103.169 251.573 103.165 251.557C103.156 251.525 103.141 251.473 103.122 251.401C103.083 251.258 103.023 251.038 102.946 250.746C102.791 250.164 102.567 249.298 102.295 248.197C101.751 245.993 101.023 242.861 100.293 239.186C98.8168 231.749 97.408 222.436 97.3905 214.155L81.3905 214.189ZM124.679 155.386C109.924 160.449 99.1141 170.577 92.053 181.472C85.0665 192.252 81.3697 204.366 81.3905 214.189L97.3905 214.155C97.3773 207.932 99.8845 198.807 105.48 190.174C111 181.656 119.149 174.199 129.871 170.52L124.679 155.386ZM105.909 172.281C115.175 171.425 123.102 170.719 126.8 170.939L127.751 154.967C122.503 154.655 112.953 155.563 104.437 156.349L105.909 172.281ZM106.299 172.236L106.299 172.236L104.047 156.395L104.047 156.395L106.299 172.236ZM83.7728 173.795C89.4946 173.806 98.0816 173.004 105.909 172.281L104.437 156.349C96.2551 157.105 88.5855 157.805 83.8058 157.795L83.7728 173.795ZM45.0803 168.9C55.5964 171.647 74.3076 173.775 83.7728 173.795L83.8058 157.795C75.5385 157.778 58.188 155.787 49.1238 153.419L45.0803 168.9ZM39.6097 132.514C33.8787 146.13 37.4955 157.603 39.5082 163.676L54.6959 158.643C52.8901 153.194 51.0274 146.631 54.3567 138.721L39.6097 132.514ZM70.5968 97.5256C54.9085 107.692 43.8038 122.55 39.6097 132.514L54.3567 138.721C57.2698 131.8 66.2256 119.424 79.2979 110.953L70.5968 97.5256ZM64.0928 99.2072C64.6618 103.235 66.5461 106.741 68.8832 109.457L81.0115 99.0213C80.2769 98.1676 79.9988 97.4176 79.9355 96.9691L64.0928 99.2072ZM83.477 74.5635C76.6831 74.5781 71.0112 77.6082 67.5144 82.7151C64.193 87.566 63.2966 93.5714 64.0928 99.2072L79.9355 96.9691C79.5646 94.3439 80.1401 92.5961 80.7163 91.7545C80.985 91.3622 81.2793 91.1123 81.6107 90.9408C81.9439 90.7685 82.5287 90.5656 83.5114 90.5634L83.477 74.5635ZM87.0449 74.8782C85.882 74.6621 84.6901 74.5609 83.4771 74.5635L83.5113 90.5634C83.8112 90.5628 84.0088 90.5879 84.1221 90.609L87.0449 74.8782ZM90.5185 76.4471C88.3988 74.7858 86.9854 73.6017 86.2555 72.9151L75.2929 84.5693C76.5814 85.7814 78.4764 87.3377 80.6485 89.0401L90.5185 76.4471ZM86.2554 72.9151C85.7085 72.4006 85.3454 71.954 85.1175 71.6166C84.8851 71.2727 84.8243 71.0892 84.8267 71.0966C84.8292 71.1042 84.8527 71.1783 84.8715 71.3166C84.8903 71.4545 84.9067 71.6736 84.8838 71.9609C84.8372 72.5492 84.6202 73.4314 83.9696 74.3177C83.2993 75.2307 82.4277 75.7918 81.6533 76.0635C80.9353 76.3154 80.4727 76.2654 80.4626 76.2643C80.4484 76.2628 80.7296 76.2945 81.3366 76.5461C81.9331 76.7935 82.7537 77.216 83.7934 77.9063L92.6443 64.5773C89.2625 62.3317 85.7071 60.7341 82.1647 60.3551C78.5462 59.9679 73.9912 60.8728 71.0721 64.849C68.3186 68.5997 68.613 72.9629 69.605 76.0261C70.6363 79.2106 72.6906 82.1215 75.2929 84.5694L86.2554 72.9151ZM83.7934 77.9063C86.7865 79.8939 91.5858 83.212 97.5261 87.3197L106.626 74.1596C100.752 70.098 95.7958 66.67 92.6443 64.5773L83.7934 77.9063ZM97.5261 87.3197C103.473 91.4316 110.491 96.285 117.766 101.229L126.759 87.9953C119.546 83.0933 112.578 78.2754 106.626 74.1596L97.5261 87.3197ZM132.963 87.9666C129.715 87.4128 126.392 86.9693 123.021 86.648L121.503 102.576C124.479 102.86 127.411 103.251 130.274 103.739L132.963 87.9666ZM106.103 88.0073C113.424 92.9645 120.681 97.9774 127.042 102.414L136.195 89.2913C129.792 84.8253 122.472 79.7686 115.074 74.7589L106.103 88.0073ZM174.422 64.1018C164.546 58.4298 152.42 53.0724 139.741 53.6413C126.34 54.2424 113.964 61.3423 103.86 77.0564L117.318 85.7099C125.17 73.4973 133.189 69.9513 140.458 69.6252C148.448 69.2667 157.268 72.7007 166.453 77.9763L174.422 64.1018ZM165.154 61.4565C163.562 64.3555 162.823 67.3244 162.494 70.0947L178.382 71.9834C178.538 70.6696 178.823 69.8065 179.178 69.1601L165.154 61.4565ZM182.313 49.972C180.029 50.3354 176.5 50.8021 173.259 52.6073C169.673 54.6047 167.229 57.6804 165.154 61.4566L179.178 69.1601C179.837 67.96 180.317 67.313 180.622 66.9679C180.888 66.6672 181.015 66.6016 181.044 66.5857C181.105 66.5519 181.313 66.4446 181.916 66.2983C182.596 66.1333 183.421 65.997 184.827 65.7732L182.313 49.972ZM194.366 46.872C189.083 48.894 185.441 49.4743 182.313 49.972L184.827 65.7732C188.292 65.2219 193.235 64.4363 200.085 61.8151L194.366 46.872ZM223.656 31.6688C212.995 37.68 201.47 44.1533 194.366 46.872L200.085 61.8151C208.577 58.5653 221.362 51.3304 231.514 45.6058L223.656 31.6688ZM255.474 28.244C255.238 25.7495 253.858 23.3221 251.446 21.8991C249.533 20.7713 247.702 20.7149 246.921 20.7281C245.304 20.7556 243.894 21.2213 243.248 21.4442C241.659 21.9933 239.768 22.8931 237.932 23.8267C234.134 25.7584 229.011 28.6489 223.656 31.6688L231.514 45.6058C236.998 42.5135 241.766 39.8269 245.185 38.0884C246.958 37.1869 248.006 36.7283 248.472 36.5673C248.855 36.4351 248.252 36.7078 247.193 36.7258C246.692 36.7344 245.078 36.7191 243.318 35.6809C241.057 34.3476 239.764 32.0585 239.546 29.7533L255.474 28.244ZM189.502 78.8808C199.12 76.6738 215.683 72.9112 229.53 65.9093C243.032 59.0823 257.285 47.3556 255.474 28.2441L239.546 29.7533C240.365 38.4004 234.483 45.4756 222.31 51.631C210.483 57.6116 195.833 61.0121 185.924 63.2862L189.502 78.8808ZM183.415 80.3384C184.836 79.9531 186.84 79.4918 189.502 78.8808L185.924 63.2862C183.39 63.8677 181.025 64.409 179.23 64.8955L183.415 80.3384ZM230.388 52.3165C227.897 53.8266 218.563 57.8567 207.901 61.1009C202.686 62.6877 197.459 63.99 192.9 64.6887C188.089 65.4259 184.979 65.3313 183.472 64.911L179.173 80.3228C184.087 81.6933 190 81.3197 195.323 80.5041C200.897 79.65 206.913 78.1257 212.559 76.408C223.617 73.0432 234.468 68.553 238.682 65.999L230.388 52.3165ZM191.044 93.2946C200.57 92.3662 213.374 90.1014 223.675 85.4571C228.817 83.1387 233.957 79.9547 237.628 75.4886C241.512 70.7624 243.592 64.7464 242.423 57.825L226.646 60.4905C226.961 62.3542 226.541 63.7793 225.267 65.329C223.779 67.1388 221.103 69.0654 217.098 70.8711C209.105 74.4751 198.291 76.5126 189.492 77.3701L191.044 93.2946ZM199.33 83.6624C198.309 82.3033 197.214 81.0251 196.062 79.8155L184.475 90.8492C185.238 91.6502 185.925 92.4566 186.541 93.2765L199.33 83.6624ZM206.448 78.0714C201.325 79.2522 196.654 80.3026 192.593 80.4768L193.278 96.4621C199.089 96.213 205.258 94.765 210.041 93.6626L206.448 78.0714ZM106.013 87.9276C102.417 85.3535 99.0673 82.9121 96.1422 80.7311L86.578 93.5578C89.603 95.8134 93.0384 98.317 96.6996 100.938L106.013 87.9276ZM92.6464 94.7002C100.607 95.4975 100.607 95.4955 100.607 95.4936C100.607 95.4929 100.607 95.4909 100.607 95.4896C100.608 95.4869 100.608 95.4842 100.608 95.4813C100.609 95.4757 100.609 95.4698 100.61 95.4636C100.611 95.4512 100.612 95.4378 100.614 95.4232C100.616 95.3942 100.619 95.3608 100.622 95.3233C100.629 95.2483 100.636 95.1564 100.643 95.049C100.657 94.8347 100.672 94.556 100.681 94.2235C100.699 93.5637 100.696 92.6639 100.618 91.6145C100.468 89.6149 100.012 86.5948 98.5327 83.6012L84.1876 90.6877C84.4073 91.1325 84.5938 91.8903 84.6625 92.8089C84.6932 93.2187 84.6933 93.5631 84.6873 93.7827C84.6843 93.89 84.6801 93.9598 84.6785 93.9841C84.6777 93.996 84.6776 93.996 84.6787 93.983C84.6792 93.9764 84.6801 93.9666 84.6813 93.9533C84.6819 93.9467 84.6826 93.9392 84.6834 93.9308C84.6838 93.9266 84.6843 93.9222 84.6847 93.9175C84.685 93.9152 84.6852 93.9128 84.6854 93.9104C84.6856 93.9092 84.6857 93.9073 84.6858 93.9067C84.686 93.9048 84.6862 93.9029 92.6464 94.7002ZM100.688 92.8388C100.314 91.9512 99.8496 91.0748 99.2828 90.2328L86.0099 99.1676C85.9663 99.1028 85.9465 99.059 85.9411 99.0462L100.688 92.8388ZM100.477 86.4812C97.3084 86.8315 94.2331 87.4214 91.2615 88.2104L95.3675 103.675C97.6036 103.081 99.8942 102.643 102.235 102.384L100.477 86.4812ZM198.158 142.57C197.153 142.055 196.13 141.531 195.09 140.998L187.789 155.235C188.832 155.77 189.857 156.295 190.863 156.81L198.158 142.57ZM199.584 148.692C199.512 148.131 199.44 147.583 199.368 147.046L183.512 149.186C183.579 149.683 183.645 150.192 183.712 150.715L199.584 148.692ZM195.346 141.734C193.827 141.574 192.277 141.575 190.718 141.758L192.578 157.649C192.923 157.609 193.288 157.606 193.675 157.646L195.346 141.734Z" fill="#002D59" mask="url(#path-4-outside-1_423_486)"/>
<path d="M45.4118 161.447L45.7466 162.487L46.8026 162.767C56.7747 165.413 74.9788 167.5 84 167.5C89.3527 167.5 97.5719 166.706 105.525 165.937C105.988 165.892 106.45 165.848 106.911 165.803C110.733 165.435 114.432 165.086 117.716 164.835C108.965 169.928 102.157 177.16 97.2488 184.895C90.7673 195.108 87.5 206.35 87.5 215C87.5 224.435 89.0264 234.703 90.5359 242.565C91.2926 246.506 92.0493 249.864 92.6174 252.239C92.9015 253.426 93.1386 254.369 93.3052 255.017C93.3886 255.341 93.4543 255.591 93.4995 255.761C93.5221 255.846 93.5395 255.912 93.5515 255.956L93.5652 256.007L93.5689 256.021L93.57 256.024L93.5703 256.026C93.5704 256.026 93.5705 256.026 95.5 255.5L93.5705 256.026L93.9781 257.521L95.527 257.5L169.527 256.5L170.443 252.745C170.446 252.738 170.447 252.738 170.447 252.738L170.444 252.737L170.444 252.737C170.431 252.729 170.405 252.714 170.368 252.692C170.293 252.648 170.171 252.573 170.01 252.465C169.687 252.249 169.204 251.903 168.618 251.409C167.444 250.419 165.855 248.835 164.283 246.506C161.155 241.873 158.015 234.171 158.498 222.08C158.727 216.377 161.085 211.481 164.639 206.739C167.446 202.995 170.891 199.476 174.522 195.767C175.546 194.721 176.586 193.659 177.629 192.574C186.994 182.832 196.339 171.496 194.489 153.792C192.742 137.067 190.8 129.793 187.797 125.099C186.321 122.792 184.629 121.176 182.854 119.482L182.74 119.372C180.919 117.634 178.896 115.692 176.522 112.599C171.211 105.679 160.771 99.7261 148.14 95.686C135.432 91.6215 120.198 89.3922 104.972 90.1535C89.4046 90.9318 75.961 98.3947 65.7461 107.309C55.5467 116.209 48.3816 126.716 45.4021 133.929C40.5599 145.653 43.4889 155.476 45.4118 161.447Z" fill="#F7CB4E" stroke="#002D59" stroke-width="4"/>
<path d="M76.7095 143.064C77.2553 149.017 72.8962 154.251 66.9873 154.767C61.0784 155.283 55.8364 150.888 55.2906 144.936C54.7447 138.984 59.1038 133.75 65.0127 133.233C70.9216 132.717 76.1636 137.112 76.7095 143.064Z" fill="white" stroke="#002D59" stroke-width="2.39673"/>
<path d="M70.6852 150.599C72.0755 150.599 73.2391 149.686 74.024 148.41C74.8148 147.125 75.2844 145.388 75.2844 143.5C75.2844 141.613 74.8148 139.875 74.024 138.59C73.2391 137.314 72.0755 136.401 70.6852 136.401C69.295 136.401 68.1314 137.314 67.3465 138.59C66.5557 139.875 66.0861 141.613 66.0861 143.5C66.0861 145.388 66.5557 147.125 67.3465 148.41C68.1314 149.686 69.295 150.599 70.6852 150.599Z" fill="#002D59" stroke="#002D59" stroke-width="1.19837"/>
</g>
<path d="M90.2798 106.037C94.3787 103.112 95.5398 96.5738 93.0089 92.72C93.0089 92.72 94.2526 80.2733 83.8807 80.318C75.3426 80.3548 71.2158 87.7788 72.3656 96.231C73.445 104.165 83.7116 110.724 90.2798 106.037Z" fill="#FFE8A4"/>
<path d="M93.0089 92.72C95.5398 96.5738 94.3787 103.112 90.2798 106.037C83.7116 110.724 73.445 104.165 72.3656 96.231C71.2158 87.7788 75.3426 80.3548 83.8807 80.318C94.2526 80.2733 93.0089 92.72 93.0089 92.72ZM93.0089 92.72C90.4781 88.8661 84.9292 86.941 82.4739 90.6559C80.4029 93.7891 83.2214 98.9192 86.0338 98.6635" stroke="#002D59" stroke-width="4" stroke-linecap="round"/>
<path d="M133.147 114.022C131.267 118.856 125.274 121.899 121.021 120.574C121.021 120.574 109.395 125.431 107.115 115.357C105.238 107.064 111.415 100.884 119.756 99.5205C127.586 98.2408 136.159 106.276 133.147 114.022Z" fill="#FFE8A4"/>
<path d="M121.021 120.574C125.274 121.899 131.267 118.856 133.147 114.022C136.159 106.276 127.586 98.2408 119.756 99.5205C111.415 100.884 105.238 107.064 107.115 115.357C109.395 125.431 121.021 120.574 121.021 120.574ZM121.021 120.574C116.768 119.25 113.685 114.432 116.688 110.961C119.221 108.033 124.758 109.263 125.144 112.066" stroke="#002D59" stroke-width="4" stroke-linecap="round"/>
<path d="M88.9554 109.158C90.7347 113.997 96.967 116.826 101.547 115.284C101.547 115.284 113.683 119.705 116.562 109.341C118.932 100.81 112.646 94.795 103.843 93.7836C95.5783 92.8341 86.1043 101.405 88.9554 109.158Z" fill="#FFE8A4"/>
<path d="M101.547 115.284C96.967 116.826 90.7347 113.997 88.9554 109.158C86.1043 101.405 95.5783 92.8341 103.843 93.7836C112.646 94.795 118.932 100.81 116.562 109.341C113.683 119.705 101.547 115.284 101.547 115.284ZM101.547 115.284C106.126 113.742 109.622 108.696 106.587 105.297C104.027 102.429 98.0859 103.932 97.5498 106.804" stroke="#002D59" stroke-width="4" stroke-linecap="round"/>
<path d="M198.339 174.412C198.299 169.749 193.904 165.418 189.583 165.312C189.583 165.312 180.696 157.803 175.148 165.722C170.581 172.241 174.061 179.297 181.169 182.879C187.842 186.241 198.403 181.884 198.339 174.412Z" fill="#FFE8A4"/>
<path d="M189.583 165.312C193.904 165.418 198.299 169.749 198.339 174.412C198.403 181.884 187.842 186.241 181.169 182.879C174.061 179.297 170.581 172.241 175.148 165.722C180.696 157.803 189.583 165.312 189.583 165.312ZM189.583 165.312C185.262 165.207 180.798 168.416 182.328 172.244C183.62 175.473 189.075 176.032 190.393 173.756" stroke="#002D59" stroke-width="4" stroke-linecap="round"/>
<path d="M183.12 164.504C183.094 159.232 178.06 154.353 173.094 154.252C173.094 154.252 162.911 145.797 156.501 154.775C151.224 162.166 155.193 170.13 163.349 174.15C171.005 177.923 183.162 172.952 183.12 164.504Z" fill="#FFE8A4"/>
<path d="M173.094 154.252C178.06 154.353 183.094 159.232 183.12 164.504C183.162 172.952 171.005 177.923 163.349 174.15C155.193 170.13 151.224 162.166 156.501 154.775C162.911 145.797 173.094 154.252 173.094 154.252ZM173.094 154.252C168.128 154.151 162.983 157.798 164.726 162.12C166.197 165.765 172.465 166.375 173.989 163.796" stroke="#002D59" stroke-width="4" stroke-linecap="round"/>
<path d="M152.662 145.07C157.352 147.484 163.998 145.422 166.373 141.21C166.373 141.21 178.561 136.384 173.545 126.738C169.415 118.798 160.522 118.522 153.202 123.658C146.33 128.479 145.146 141.202 152.662 145.07Z" fill="#FFE8A4"/>
<path d="M166.373 141.21C163.998 145.422 157.352 147.484 152.662 145.07C145.146 141.202 146.33 128.479 153.202 123.658C160.522 118.522 169.415 118.798 173.545 126.738C178.561 136.384 166.373 141.21 166.373 141.21ZM166.373 141.21C168.748 136.998 167.88 130.9 163.242 130.398C159.331 129.975 155.905 135.068 157.492 137.567" stroke="#002D59" stroke-width="4" stroke-linecap="round"/>
<path d="M122.418 134.373C125.736 138.753 132.732 140.104 136.687 137.51C136.687 137.51 149.954 139.062 149.363 128.123C148.876 119.118 140.784 114.621 131.88 115.67C123.52 116.655 117.102 127.355 122.418 134.373Z" fill="#FFE8A4"/>
<path d="M136.687 137.51C132.732 140.104 125.736 138.753 122.418 134.373C117.102 127.355 123.52 116.655 131.88 115.67C140.784 114.621 148.876 119.118 149.363 128.123C149.954 139.062 136.687 137.51 136.687 137.51ZM136.687 137.51C140.642 134.915 142.393 129.1 138.323 126.439C134.891 124.194 129.598 127.067 130.017 130.038" stroke="#002D59" stroke-width="4" stroke-linecap="round"/>
<path d="M190.202 156.771C192.197 151.799 189.439 145.274 184.912 143.273C184.912 143.273 178.789 131.408 169.457 137.398C161.775 142.329 162.373 151.349 168.331 158.262C173.923 164.752 187.004 164.739 190.202 156.771Z" fill="#FFE8A4"/>
<path d="M184.912 143.273C189.439 145.274 192.197 151.799 190.202 156.771C187.004 164.739 173.923 164.752 168.331 158.262C162.373 151.349 161.775 142.329 169.457 137.398C178.789 131.408 184.912 143.273 184.912 143.273ZM184.912 143.273C180.385 141.272 174.259 142.731 174.206 147.468C174.161 151.463 179.69 154.443 182.079 152.6" stroke="#002D59" stroke-width="4" stroke-linecap="round"/>
<path d="M189.242 197.247C192.745 193.436 192.296 186.534 188.705 183.115C188.705 183.115 186.85 170.171 176.13 172.31C167.305 174.071 164.909 182.475 168.232 190.862C171.351 198.736 183.629 203.352 189.242 197.247Z" fill="#FFE8A4"/>
<path d="M188.705 183.115C192.296 186.534 192.745 193.436 189.242 197.247C183.629 203.352 171.351 198.736 168.232 190.862C164.909 182.475 167.305 174.071 176.13 172.31C186.85 170.171 188.705 183.115 188.705 183.115ZM188.705 183.115C185.113 179.696 178.886 178.852 177.283 183.136C175.931 186.75 180.142 191.413 182.988 190.584" stroke="#002D59" stroke-width="4" stroke-linecap="round"/>
<path d="M199.679 177.135C193.99 177.873 187.876 173.598 186.925 168.697C186.925 168.697 176.083 159.843 184.677 152.198C191.752 145.904 201.012 148.679 206.728 156.169C212.095 163.2 208.796 175.953 199.679 177.135Z" fill="#FFE8A4"/>
<path d="M186.925 168.697C187.876 173.598 193.99 177.873 199.679 177.135C208.796 175.953 212.095 163.2 206.728 156.169C201.012 148.679 191.752 145.904 184.677 152.198C176.083 159.843 186.925 168.697 186.925 168.697ZM186.925 168.697C185.974 163.796 189.035 158.176 193.991 159.275C198.171 160.202 199.89 166.319 197.368 168.2" stroke="#002D59" stroke-width="4" stroke-linecap="round"/>
<path d="M193.5 135.895L195.62 137.079L196.367 134.778C202.567 115.678 202.768 102.884 198.51 93.1731C194.27 83.5052 185.787 77.3508 175.912 71.127C165.98 64.8676 154.433 59.0056 142.763 58.7915C130.857 58.5731 119.234 64.2254 109.286 80.025L108.264 81.6473L109.849 82.7436C120.435 90.0667 130.876 97.5012 138.672 103.106C142.57 105.908 145.805 108.253 148.066 109.896C149.196 110.718 150.083 111.364 150.687 111.805C150.989 112.025 151.22 112.194 151.375 112.308L151.552 112.437L151.596 112.47L151.607 112.478L151.61 112.48L151.61 112.48C151.611 112.48 151.611 112.48 152.785 110.868L151.611 112.48L151.711 112.554L151.819 112.614L193.5 135.895Z" fill="#13A0F0" stroke="#002D59" stroke-width="4"/>
<path d="M78.7853 78.8769C82.6528 82.5986 95.3917 92.1952 108.997 101.886C122.642 111.605 137.418 121.603 145.456 126.132C158.434 133.445 172.737 141.036 185.185 147.566C188.762 149.443 192.183 151.23 195.375 152.897C203.311 157.044 209.829 160.45 213.812 162.647C215.842 163.766 217.883 163.813 219.579 162.758C221.123 161.798 222.026 160.138 222.488 158.569C222.959 156.966 223.063 155.158 222.749 153.539C222.445 151.975 221.663 150.204 219.995 149.267C215.22 146.585 209.79 143.744 203.651 140.532C190.968 133.896 175.259 125.676 156.049 114.011C140.493 104.565 118.155 88.7842 102.716 77.8768C96.7782 73.6815 91.8606 70.2072 88.742 68.0918C85.8142 66.1059 83.178 65.0119 80.9286 64.7703C78.6494 64.5256 76.5514 65.1631 75.3061 66.8965C74.1087 68.5631 74.08 70.7264 74.7117 72.734C75.3531 74.7725 76.7325 76.9014 78.7853 78.8769Z" fill="#13A0F0" stroke="#002D59" stroke-width="4"/>
<path d="M196.637 115.558L196.866 114.418C199.601 114.179 202.283 113.401 204.275 111.346C206.283 109.274 207.266 106.241 207.33 102.207L207.374 99.484C209.244 98.6384 210.966 97.5487 212.413 96.1391C215.136 93.4882 216.729 89.8585 216.684 85.0969L216.662 82.6874L214.9 83.0365C215.378 82.8767 215.854 82.7128 216.325 82.5447C222.308 80.4128 227.889 77.5471 231.774 73.7048C235.728 69.7944 237.957 64.8217 236.969 58.7647L236.486 55.8083L233.941 57.3903C232.386 58.3569 229.171 59.9044 225.008 61.6318C231.593 58.458 237.735 54.5215 242.302 49.59C247.622 43.844 250.817 36.7211 250.028 28.0127C249.968 27.351 249.623 26.6944 248.975 26.2888C248.442 25.9547 247.897 25.9159 247.591 25.9177C246.973 25.9215 246.322 26.1112 245.792 26.2956C244.656 26.6916 243.128 27.4164 241.376 28.3253C237.838 30.1607 233.002 32.9503 227.737 35.9957C227.561 36.0972 227.385 36.1991 227.208 36.3013C216.7 42.379 204.623 49.3646 196.959 52.3792C191.106 54.6819 187.08 55.347 183.796 55.8894C182.757 56.061 181.792 56.2204 180.867 56.4156C178.927 56.8248 177.119 57.4128 175.408 58.7206C173.721 60.0109 172.29 61.8781 170.842 64.5687C168.651 68.6375 168.546 73.2348 168.722 77.7846C168.76 78.7841 168.813 79.7842 168.865 80.7883C169.058 84.4922 169.255 88.2496 168.783 92.2248C168.545 94.2323 167.502 98.4047 166.465 102.227C165.956 104.105 165.462 105.849 165.096 107.123C164.913 107.76 164.761 108.28 164.656 108.639C164.604 108.819 164.562 108.959 164.534 109.053L164.503 109.161L164.495 109.188L164.493 109.194L164.492 109.196L164.492 109.196L166.409 109.764L164.492 109.196L164.127 110.428L165.093 111.272L174.153 119.18C177.786 122.876 182.591 125.025 186.991 124.723C189.234 124.568 191.382 123.769 193.123 122.192C194.863 120.616 196.07 118.378 196.637 115.558ZM193.926 102.341C195.796 102.22 197.688 102.026 199.534 101.723C197.677 102.108 195.804 102.334 193.926 102.341Z" fill="#002D59" stroke="#002D59" stroke-width="4"/>
<path d="M214.685 85.1179C204.574 87.121 189.795 92.3976 182.077 86.5092C197.607 86.2759 238.453 80.2857 234.995 59.0891C228.281 63.2626 194.58 76.6146 181.744 72.9763C195.45 69.1485 250.951 60.3786 248.037 28.1954C247.762 25.1555 213.625 47.9716 197.689 54.2408C181.862 60.4668 178.114 55.2754 172.602 65.5156C168.78 72.6147 172.016 81.9406 170.769 92.4581C170.251 96.8258 166.409 109.764 166.409 109.764L175.527 117.724C182.197 124.562 192.685 125.08 194.677 115.166C190.232 113.945 183.092 116.596 178.844 111.38C191.286 111.44 205.09 117.183 205.331 102.177C197.692 104.803 189.128 105.881 180.886 100.467C191.897 100.511 214.844 102.147 214.685 85.1179Z" fill="#ECECEC"/>
<circle cx="17" cy="17" r="15" transform="matrix(-1 0 0 1 188 100)" fill="#F6CB4E" stroke="#002D59" stroke-width="4"/>
<circle cx="7" cy="7" r="7" transform="matrix(-1 0 0 1 178 110)" fill="#ECECEC" stroke="#002D59" stroke-width="3"/>
</svg>
