<svg width="256" height="256" viewBox="0 0 256 256" fill="none" xmlns="http://www.w3.org/2000/svg">
<mask id="mask0_423_486" style="mask-type:alpha" maskUnits="userSpaceOnUse" x="0" y="0" width="256" height="256">
<rect width="256" height="256" fill="#D9D9D9"/>
</mask>
<g mask="url(#mask0_423_486)">
<circle cx="127" cy="127" r="121" transform="matrix(-1 0 0 1 255 1.00008)" fill="#ECECEC" stroke="#13A0F0" stroke-width="12"/>
<circle cx="105" cy="105" r="110" transform="matrix(-1 0 0 1 233 23.0001)" stroke="white" stroke-width="10"/>
<mask id="mask1_423_486" style="mask-type:alpha" maskUnits="userSpaceOnUse" x="-9" y="-7" width="242" height="240">
<path d="M23 128C23 185.99 70.0101 233 128 233C185.99 233 233 185.99 233 128C233 70.0102 185.99 23 128 23C99.908 23 14.8427 -20.4679 -4 -2.49999C-24.054 16.623 23 98.1022 23 128Z" fill="#D9D9D9"/>
</mask>
<g mask="url(#mask1_423_486)">
<mask id="path-5-outside-1_423_486" maskUnits="userSpaceOnUse" x="-1.65154" y="-18.1178" width="231.131" height="273.723" fill="black">
<rect fill="white" x="-1.65154" y="-18.1178" width="231.131" height="273.723"/>
<path fill-rule="evenodd" clip-rule="evenodd" d="M47.7554 65.867C45.6322 65.3776 43.5948 64.908 41.7181 64.5484C41.6048 74.248 49.3553 77.7342 58.0207 78.942C57.7049 80.1751 57.4553 81.4642 57.2758 82.8157C55.1457 82.4425 53.0578 81.8729 51.035 81.1971C51.1204 87.1472 53.4459 89.7538 57.0107 90.745C57.3461 97.0196 58.8733 104.437 61.83 113.389L69.1574 109.379C68.4114 110.839 67.7271 112.601 67.0879 114.849C61.8076 117.626 56.9298 120.128 52.4426 122.43C46.3262 125.567 40.9356 128.332 36.2409 130.916C32.5056 132.971 34.407 143.846 40.476 140.566C43.1009 139.147 46.8196 137.217 51.3085 134.909C50.6834 135.536 50.0868 136.211 49.5242 136.93C44.1442 143.811 47.4166 156.266 56.5289 157.402C57.1393 157.478 57.7548 157.498 58.3683 157.466C59.7106 160.935 63.6023 163.333 67.7469 163.953C67.5556 164.702 67.4851 165.176 67.4851 165.176C63.8874 168.525 63.4245 175.269 66.9187 178.985C71.5024 183.859 80.5661 181.704 85.4234 176.538C92.771 183.961 99.226 191.324 99.6075 201.15C100.556 225.575 86.5429 232.933 86.5429 232.933L160.527 233.757C160.527 233.757 166.571 212.248 166.61 194.172C166.643 178.125 154.202 151.694 128.725 142.953C133.198 142.687 141.936 143.494 150.827 144.315L150.827 144.315C158.832 145.055 166.96 145.806 172.211 145.795C181.077 145.776 199.108 143.717 208.898 141.16C210.807 135.399 213.547 126.38 209.017 115.617C205.463 107.175 195.433 93.5579 181.053 84.2392C182.588 82.4542 183.67 80.3264 183.986 78.0881C185.153 69.8272 181.042 62.5818 172.506 62.5635C171.749 62.5618 171.055 62.625 170.417 62.7436C172.562 61.0618 174.217 59.6916 175.226 58.7422C182.713 51.6998 178.896 43.8611 167.781 51.2418C164.709 53.2819 159.831 56.655 153.924 60.7396C147.975 64.8535 140.981 69.6892 133.738 74.6119C130.564 74.9144 127.437 75.3319 124.382 75.8528C130.763 71.4013 138.052 66.3665 145.411 61.3831C127.454 33.4564 104.624 40.0914 85.5622 51.0391C85.3195 48.997 84.8078 47.081 83.834 45.3083C80.4504 39.1488 77.7245 38.715 72.4296 37.8726C69.1332 37.3481 64.8411 36.6651 58.7745 34.3435C50.9766 31.3593 38.8214 24.5052 28.4151 18.6373C17.5756 12.5252 8.63362 7.48297 8.49 8.9987C5.85992 36.7573 48.7601 46.6024 68.2869 51.0835C70.8851 51.6798 73.0694 52.181 74.6776 52.6169C61.8365 56.1984 28.1698 43.2219 21.4654 39.1577C18.4967 56.7279 47.4072 63.5464 65.7317 65.3324C64.7744 66.3376 63.8832 67.38 63.0642 68.4694C58.1284 68.2578 52.7084 67.0086 47.7554 65.867ZM154.644 74.4327C158.272 71.8352 161.665 69.3628 164.64 67.1445C162.941 70.5829 163.354 74.7002 163.354 74.7002C163.092 75.0888 162.87 75.5051 162.686 75.9425C160.082 75.2511 157.399 74.7373 154.644 74.4327ZM61.4894 129.69C62.4946 129.175 63.5189 128.65 64.5602 128.116C64.4905 128.633 64.4211 129.162 64.3521 129.703C63.4 129.592 62.4424 129.59 61.4894 129.69Z"/>
</mask>
<path fill-rule="evenodd" clip-rule="evenodd" d="M47.7554 65.867C45.6322 65.3776 43.5948 64.908 41.7181 64.5484C41.6048 74.248 49.3553 77.7342 58.0207 78.942C57.7049 80.1751 57.4553 81.4642 57.2758 82.8157C55.1457 82.4425 53.0578 81.8729 51.035 81.1971C51.1204 87.1472 53.4459 89.7538 57.0107 90.745C57.3461 97.0196 58.8733 104.437 61.83 113.389L69.1574 109.379C68.4114 110.839 67.7271 112.601 67.0879 114.849C61.8076 117.626 56.9298 120.128 52.4426 122.43C46.3262 125.567 40.9356 128.332 36.2409 130.916C32.5056 132.971 34.407 143.846 40.476 140.566C43.1009 139.147 46.8196 137.217 51.3085 134.909C50.6834 135.536 50.0868 136.211 49.5242 136.93C44.1442 143.811 47.4166 156.266 56.5289 157.402C57.1393 157.478 57.7548 157.498 58.3683 157.466C59.7106 160.935 63.6023 163.333 67.7469 163.953C67.5556 164.702 67.4851 165.176 67.4851 165.176C63.8874 168.525 63.4245 175.269 66.9187 178.985C71.5024 183.859 80.5661 181.704 85.4234 176.538C92.771 183.961 99.226 191.324 99.6075 201.15C100.556 225.575 86.5429 232.933 86.5429 232.933L160.527 233.757C160.527 233.757 166.571 212.248 166.61 194.172C166.643 178.125 154.202 151.694 128.725 142.953C133.198 142.687 141.936 143.494 150.827 144.315L150.827 144.315C158.832 145.055 166.96 145.806 172.211 145.795C181.077 145.776 199.108 143.717 208.898 141.16C210.807 135.399 213.547 126.38 209.017 115.617C205.463 107.175 195.433 93.5579 181.053 84.2392C182.588 82.4542 183.67 80.3264 183.986 78.0881C185.153 69.8272 181.042 62.5818 172.506 62.5635C171.749 62.5618 171.055 62.625 170.417 62.7436C172.562 61.0618 174.217 59.6916 175.226 58.7422C182.713 51.6998 178.896 43.8611 167.781 51.2418C164.709 53.2819 159.831 56.655 153.924 60.7396C147.975 64.8535 140.981 69.6892 133.738 74.6119C130.564 74.9144 127.437 75.3319 124.382 75.8528C130.763 71.4013 138.052 66.3665 145.411 61.3831C127.454 33.4564 104.624 40.0914 85.5622 51.0391C85.3195 48.997 84.8078 47.081 83.834 45.3083C80.4504 39.1488 77.7245 38.715 72.4296 37.8726C69.1332 37.3481 64.8411 36.6651 58.7745 34.3435C50.9766 31.3593 38.8214 24.5052 28.4151 18.6373C17.5756 12.5252 8.63362 7.48297 8.49 8.9987C5.85992 36.7573 48.7601 46.6024 68.2869 51.0835C70.8851 51.6798 73.0694 52.181 74.6776 52.6169C61.8365 56.1984 28.1698 43.2219 21.4654 39.1577C18.4967 56.7279 47.4072 63.5464 65.7317 65.3324C64.7744 66.3376 63.8832 67.38 63.0642 68.4694C58.1284 68.2578 52.7084 67.0086 47.7554 65.867ZM154.644 74.4327C158.272 71.8352 161.665 69.3628 164.64 67.1445C162.941 70.5829 163.354 74.7002 163.354 74.7002C163.092 75.0888 162.87 75.5051 162.686 75.9425C160.082 75.2511 157.399 74.7373 154.644 74.4327ZM61.4894 129.69C62.4946 129.175 63.5189 128.65 64.5602 128.116C64.4905 128.633 64.4211 129.162 64.3521 129.703C63.4 129.592 62.4424 129.59 61.4894 129.69Z" fill="#002D59"/>
<path d="M41.7181 64.5484L33.7187 64.455L33.8304 54.8915L43.2237 56.6914L41.7181 64.5484ZM47.7554 65.867L45.9586 73.6626L45.9586 73.6626L47.7554 65.867ZM58.0207 78.942L59.1251 71.0186L67.9916 72.2544L65.7706 80.9268L58.0207 78.942ZM57.2758 82.8157L65.2062 83.8687L64.1086 92.1349L55.895 90.6956L57.2758 82.8157ZM51.035 81.1971L43.0359 81.3119L42.8741 70.0357L53.5702 73.6094L51.035 81.1971ZM57.0107 90.745L59.154 83.0375L64.6925 84.5776L64.9993 90.3181L57.0107 90.745ZM61.83 113.389L65.6707 120.407L57.2455 125.018L54.2335 115.898L61.83 113.389ZM69.1574 109.379L65.3167 102.361L88.0976 89.8939L76.2813 113.019L69.1574 109.379ZM67.0879 114.849L74.7828 117.037L73.8454 120.333L70.8122 121.929L67.0879 114.849ZM52.4426 122.43L48.7914 115.312L48.7914 115.312L52.4426 122.43ZM36.2409 130.916L40.0975 137.925L40.0975 137.925L36.2409 130.916ZM40.476 140.566L36.6719 133.528L36.6719 133.528L40.476 140.566ZM51.3085 134.909L47.6508 127.794L56.9727 140.558L51.3085 134.909ZM49.5242 136.93L55.8265 141.858L55.8265 141.858L49.5242 136.93ZM56.5289 157.402L55.5389 165.341L55.5388 165.341L56.5289 157.402ZM58.3683 157.466L57.9588 149.477L63.7398 149.181L65.8291 154.579L58.3683 157.466ZM67.7469 163.953L68.9303 156.041L77.689 157.351L75.4983 165.932L67.7469 163.953ZM67.4851 165.176L75.3981 166.353L74.986 169.124L72.9354 171.032L67.4851 165.176ZM66.9187 178.985L61.0908 184.466L61.0908 184.466L66.9187 178.985ZM85.4234 176.538L79.595 171.058L85.2753 165.017L91.1089 170.91L85.4234 176.538ZM99.6075 201.15L91.6135 201.46L91.6135 201.46L99.6075 201.15ZM86.5429 232.933L86.4537 240.932L82.8241 225.849L86.5429 232.933ZM160.527 233.757L168.229 235.921L166.57 241.825L160.438 241.756L160.527 233.757ZM166.61 194.172L158.61 194.155L166.61 194.172ZM128.725 142.953L126.129 150.52L128.249 134.967L128.725 142.953ZM150.827 144.315L151.563 136.349L151.758 136.367L151.953 136.395L150.827 144.315ZM150.827 144.315L150.091 152.281L149.896 152.263L149.701 152.236L150.827 144.315ZM172.211 145.795L172.194 137.795L172.194 137.795L172.211 145.795ZM208.898 141.16L216.492 143.676L215.125 147.802L210.92 148.9L208.898 141.16ZM209.017 115.617L201.643 118.721L201.643 118.721L209.017 115.617ZM181.053 84.2392L176.702 90.9528L169.011 85.9687L174.988 79.0213L181.053 84.2392ZM183.986 78.0881L191.907 79.2072L191.907 79.2072L183.986 78.0881ZM172.506 62.5635L172.523 54.5635L172.523 54.5635L172.506 62.5635ZM170.417 62.7436L171.878 70.609L165.482 56.4471L170.417 62.7436ZM175.226 58.7422L169.745 52.9151L169.745 52.9151L175.226 58.7422ZM167.781 51.2418L172.207 57.9063L172.207 57.9063L167.781 51.2418ZM153.924 60.7396L149.374 54.1596L149.374 54.1596L153.924 60.7396ZM133.738 74.6119L138.234 81.2286L136.538 82.3813L134.497 82.5759L133.738 74.6119ZM124.382 75.8528L125.726 83.739L119.805 69.2913L124.382 75.8528ZM145.411 61.3831L152.14 57.0564L156.365 63.6272L149.897 68.0073L145.411 61.3831ZM85.5622 51.0391L89.5465 57.9763L79.0474 64.0063L77.6182 51.9834L85.5622 51.0391ZM83.834 45.3083L76.8224 49.1601L76.8224 49.1601L83.834 45.3083ZM72.4296 37.8726L73.6867 29.972L73.6867 29.972L72.4296 37.8726ZM58.7745 34.3435L61.6339 26.872L61.6339 26.872L58.7745 34.3435ZM28.4151 18.6373L32.3444 11.6688L32.3445 11.6688L28.4151 18.6373ZM8.49 8.9987L0.525667 8.24409L0.525671 8.24405L8.49 8.9987ZM68.2869 51.0835L66.4975 58.8808L66.4975 58.8808L68.2869 51.0835ZM74.6776 52.6169L76.7704 44.8955L104.852 52.5064L76.8269 60.3228L74.6776 52.6169ZM21.4654 39.1577L13.5772 37.825L15.5395 26.2105L25.6124 32.3165L21.4654 39.1577ZM65.7317 65.3324L66.5077 57.3701L82.8445 58.9623L71.5252 70.8492L65.7317 65.3324ZM63.0642 68.4694L69.459 73.2765L66.9287 76.6425L62.7216 76.4621L63.0642 68.4694ZM154.644 74.4327L153.765 82.3843L132.999 80.0885L149.987 67.9276L154.644 74.4327ZM164.64 67.1445L159.858 60.7311L171.812 70.6877L164.64 67.1445ZM163.354 74.7002L171.314 73.9029L171.601 76.774L169.99 79.1676L163.354 74.7002ZM162.686 75.9425L170.059 79.0462L167.359 85.4606L160.632 83.6746L162.686 75.9425ZM61.4894 129.69L62.3251 137.646L57.842 122.57L61.4894 129.69ZM64.5602 128.116L60.9098 120.998L74.5364 114.01L72.4883 129.186L64.5602 128.116ZM64.3521 129.703L72.2878 130.715L71.2864 138.57L63.4219 137.649L64.3521 129.703ZM43.2237 56.6914C45.2744 57.0843 47.4643 57.5901 49.5521 58.0714L45.9586 73.6626C43.8001 73.1651 41.9151 72.7317 40.2126 72.4055L43.2237 56.6914ZM56.9163 86.8654C52.0786 86.1911 46.4022 84.7675 41.8048 81.3501C36.7372 77.5831 33.6321 71.8627 33.7187 64.455L49.7176 64.6419C49.7021 65.9688 49.9516 66.7318 50.1691 67.1714C50.386 67.6097 50.7305 68.0486 51.35 68.5092C52.7659 69.5616 55.2973 70.485 59.1251 71.0186L56.9163 86.8654ZM49.3454 81.7627C49.565 80.1088 49.8736 78.5081 50.2708 76.9572L65.7706 80.9268C65.5361 81.8421 65.3455 82.8196 65.2062 83.8687L49.3454 81.7627ZM53.5702 73.6094C55.3122 74.1915 57.0067 74.6467 58.6567 74.9358L55.895 90.6956C53.2848 90.2382 50.8034 89.5544 48.4999 88.7848L53.5702 73.6094ZM54.8674 98.4526C51.6919 97.5695 48.4384 95.7491 46.1118 92.3425C43.8905 89.0901 43.0921 85.2301 43.0359 81.3119L59.0342 81.0823C59.0634 83.1142 59.4704 83.5325 59.3244 83.3187C59.2439 83.2009 59.1193 83.0791 58.999 82.9995C58.8999 82.934 58.9153 82.9711 59.154 83.0375L54.8674 98.4526ZM54.2335 115.898C51.1343 106.514 49.4069 98.3706 49.0221 91.172L64.9993 90.3181C65.2853 95.6686 66.6124 102.36 69.4264 110.881L54.2335 115.898ZM72.9981 116.397L65.6707 120.407L57.9893 106.372L65.3167 102.361L72.9981 116.397ZM59.3929 112.661C60.1412 110.029 61.0004 107.761 62.0335 105.739L76.2813 113.019C75.8225 113.917 75.313 115.172 74.7828 117.037L59.3929 112.661ZM70.8122 121.929C65.4905 124.728 60.5779 127.248 56.0937 129.548L48.7914 115.312C53.2816 113.009 58.1247 110.524 63.3635 107.769L70.8122 121.929ZM56.0937 129.548C49.9475 132.701 44.6695 135.409 40.0975 137.925L32.3842 123.907C37.2017 121.256 42.7049 118.434 48.7914 115.312L56.0937 129.548ZM40.0975 137.925C41.0938 137.376 41.6681 136.658 41.955 136.182C42.2308 135.724 42.3025 135.398 42.3171 135.325C42.3349 135.236 42.3241 135.239 42.3282 135.318C42.3299 135.35 42.3335 135.382 42.3384 135.41C42.3433 135.439 42.3475 135.453 42.3466 135.45C42.3459 135.448 42.3361 135.415 42.3089 135.355C42.2819 135.296 42.2301 135.193 42.1406 135.058C41.971 134.804 41.5856 134.32 40.8773 133.891C40.1125 133.427 39.1823 133.16 38.2376 133.179C37.3456 133.197 36.7976 133.46 36.6719 133.528L44.2801 147.603C40.7695 149.501 36.4348 149.909 32.58 147.571C29.2893 145.575 27.7183 142.379 27.0171 140.033C26.2783 137.562 26.1067 134.785 26.6296 132.179C27.1148 129.759 28.5419 126.021 32.3842 123.907L40.0975 137.925ZM36.6719 133.528C39.3788 132.065 43.166 130.1 47.6508 127.794L54.9663 142.024C50.4732 144.334 46.823 146.229 44.2801 147.603L36.6719 133.528ZM43.222 132.003C43.9789 131.035 44.7881 130.118 45.6444 129.259L56.9727 140.558C56.5786 140.953 56.1947 141.387 55.8265 141.858L43.222 132.003ZM55.5388 165.341C47.0854 164.286 41.9139 157.979 39.9553 151.704C38.0318 145.541 38.6369 137.867 43.222 132.003L55.8265 141.858C55.0315 142.875 54.5829 144.868 55.2286 146.937C55.8393 148.893 56.8601 149.381 57.519 149.464L55.5388 165.341ZM58.7778 165.456C57.7211 165.51 56.6366 165.478 55.5389 165.341L57.519 149.464C57.642 149.479 57.7884 149.486 57.9588 149.477L58.7778 165.456ZM66.5635 171.865C60.688 170.986 53.6381 167.409 50.9076 160.354L65.8291 154.579C65.7807 154.454 65.8415 154.718 66.4573 155.13C67.0643 155.536 67.9414 155.893 68.9303 156.041L66.5635 171.865ZM67.4851 165.176C59.5721 164 59.5722 163.999 59.5723 163.998C59.5723 163.998 59.5724 163.997 59.5725 163.997C59.5726 163.996 59.5727 163.995 59.5728 163.994C59.5731 163.993 59.5734 163.991 59.5737 163.989C59.5742 163.985 59.5748 163.982 59.5754 163.978C59.5765 163.97 59.5778 163.962 59.5792 163.953C59.5819 163.935 59.5849 163.916 59.5884 163.894C59.5952 163.851 59.6035 163.801 59.6134 163.743C59.6333 163.627 59.6595 163.481 59.6933 163.309C59.7605 162.965 59.8584 162.511 59.9955 161.974L75.4983 165.932C75.444 166.144 75.4111 166.302 75.3952 166.382C75.3874 166.422 75.3841 166.442 75.3847 166.438C75.385 166.436 75.3863 166.429 75.3886 166.415C75.3897 166.407 75.3911 166.399 75.3927 166.389C75.3935 166.383 75.3943 166.378 75.3952 166.372C75.3957 166.369 75.3961 166.366 75.3966 166.363C75.3968 166.361 75.3971 166.359 75.3973 166.358C75.3974 166.357 75.3976 166.356 75.3977 166.355C75.3978 166.355 75.3979 166.354 75.3979 166.354C75.398 166.353 75.3981 166.353 67.4851 165.176ZM61.0908 184.466C57.5615 180.713 56.3383 175.819 56.5524 171.543C56.7655 167.287 58.4454 162.661 62.0347 159.32L72.9354 171.032C72.9514 171.017 72.8572 171.102 72.7474 171.359C72.6374 171.618 72.5515 171.961 72.5324 172.343C72.4892 173.206 72.7817 173.542 72.7466 173.505L61.0908 184.466ZM91.2517 182.018C87.6049 185.897 82.5315 188.558 77.3859 189.417C72.2524 190.275 65.785 189.457 61.0908 184.466L72.7466 173.505C72.7612 173.52 72.773 173.53 72.7978 173.544C72.8267 173.561 72.9025 173.599 73.0479 173.636C73.3571 173.716 73.9263 173.774 74.751 173.636C76.4975 173.344 78.3846 172.345 79.595 171.058L91.2517 182.018ZM91.6135 201.46C91.3667 195.103 87.2664 189.772 79.7378 182.166L91.1089 170.91C98.2755 178.15 107.085 187.544 107.602 200.84L91.6135 201.46ZM86.5429 232.933C82.8241 225.849 82.8193 225.852 82.8146 225.854C82.8131 225.855 82.8084 225.858 82.8054 225.859C82.7993 225.862 82.7935 225.866 82.7879 225.869C82.7766 225.874 82.7662 225.88 82.7565 225.885C82.7371 225.896 82.7208 225.905 82.7076 225.912C82.6811 225.927 82.6666 225.935 82.6633 225.937C82.6568 225.941 82.6946 225.919 82.7706 225.869C82.923 225.77 83.2247 225.562 83.6271 225.23C84.4312 224.567 85.6297 223.416 86.8517 221.649C89.2224 218.223 92.0224 211.993 91.6135 201.46L107.602 200.84C108.141 214.733 104.409 224.394 100.01 230.752C97.8472 233.878 95.6017 236.093 93.808 237.573C92.9116 238.312 92.1259 238.87 91.5157 239.268C91.2103 239.467 90.948 239.627 90.7367 239.751C90.631 239.813 90.5379 239.865 90.4585 239.909C90.4187 239.931 90.3824 239.951 90.3495 239.969C90.3331 239.978 90.3176 239.986 90.3029 239.994C90.2956 239.998 90.2885 240.001 90.2816 240.005C90.2782 240.007 90.2732 240.01 90.2715 240.01C90.2665 240.013 90.2617 240.016 86.5429 232.933ZM160.438 241.756L86.4537 240.932L86.632 224.933L160.616 225.757L160.438 241.756ZM174.609 194.189C174.589 203.984 172.956 214.464 171.401 222.301C170.615 226.262 169.83 229.637 169.239 232.03C168.943 233.228 168.696 234.184 168.519 234.848C168.431 235.18 168.361 235.44 168.312 235.621C168.287 235.711 168.267 235.782 168.253 235.832C168.247 235.857 168.241 235.877 168.237 235.892C168.235 235.9 168.233 235.906 168.232 235.911C168.231 235.913 168.23 235.915 168.23 235.917C168.23 235.918 168.229 235.919 168.229 235.919C168.229 235.92 168.229 235.921 160.527 233.757C152.825 231.593 152.825 231.593 152.825 231.594C152.825 231.594 152.825 231.595 152.825 231.595C152.825 231.595 152.825 231.595 152.825 231.595C152.825 231.595 152.825 231.593 152.826 231.59C152.828 231.584 152.831 231.573 152.835 231.557C152.844 231.525 152.859 231.473 152.878 231.401C152.917 231.258 152.977 231.038 153.054 230.746C153.209 230.164 153.433 229.298 153.705 228.197C154.249 225.993 154.977 222.861 155.707 219.186C157.183 211.749 158.592 202.436 158.61 194.155L174.609 194.189ZM131.321 135.386C146.076 140.449 156.886 150.577 163.947 161.472C170.933 172.252 174.63 184.366 174.609 194.189L158.61 194.155C158.623 187.932 156.116 178.807 150.52 170.174C145 161.656 136.851 154.199 126.129 150.52L131.321 135.386ZM150.091 152.281C140.825 151.425 132.898 150.719 129.2 150.939L128.249 134.967C133.497 134.655 143.047 135.563 151.563 136.349L150.091 152.281ZM149.701 152.236L149.701 152.236L151.953 136.395L151.953 136.395L149.701 152.236ZM172.227 153.795C166.505 153.806 157.918 153.004 150.091 152.281L151.563 136.349C159.745 137.105 167.415 137.805 172.194 137.795L172.227 153.795ZM210.92 148.9C200.404 151.647 181.692 153.775 172.227 153.795L172.194 137.795C180.461 137.778 197.812 135.787 206.876 133.419L210.92 148.9ZM216.39 112.514C222.121 126.13 218.504 137.603 216.492 143.676L201.304 138.643C203.11 133.194 204.973 126.631 201.643 118.721L216.39 112.514ZM185.403 77.5256C201.091 87.6919 212.196 102.55 216.39 112.514L201.643 118.721C198.73 111.8 189.774 99.4239 176.702 90.9528L185.403 77.5256ZM191.907 79.2072C191.338 83.2352 189.454 86.7409 187.117 89.4571L174.988 79.0213C175.723 78.1676 176.001 77.4176 176.064 76.9691L191.907 79.2072ZM172.523 54.5635C179.317 54.5781 184.989 57.6082 188.486 62.7151C191.807 67.566 192.703 73.5714 191.907 79.2072L176.064 76.9691C176.435 74.3439 175.86 72.5961 175.284 71.7545C175.015 71.3622 174.721 71.1123 174.389 70.9408C174.056 70.7685 173.471 70.5656 172.489 70.5634L172.523 54.5635ZM168.955 54.8782C170.118 54.6621 171.31 54.5609 172.523 54.5635L172.489 70.5634C172.189 70.5628 171.991 70.5879 171.878 70.609L168.955 54.8782ZM165.482 56.4471C167.601 54.7858 169.015 53.6017 169.745 52.9151L180.707 64.5693C179.419 65.7814 177.524 67.3377 175.351 69.0401L165.482 56.4471ZM169.745 52.9151C170.292 52.4006 170.655 51.954 170.883 51.6166C171.115 51.2727 171.176 51.0892 171.173 51.0966C171.171 51.1042 171.147 51.1783 171.128 51.3166C171.11 51.4545 171.093 51.6736 171.116 51.9609C171.163 52.5492 171.38 53.4314 172.03 54.3177C172.701 55.2307 173.572 55.7918 174.347 56.0635C175.065 56.3154 175.527 56.2654 175.537 56.2643C175.552 56.2628 175.27 56.2945 174.663 56.5461C174.067 56.7935 173.246 57.216 172.207 57.9063L163.356 44.5773C166.737 42.3317 170.293 40.7341 173.835 40.3551C177.454 39.9679 182.009 40.8728 184.928 44.849C187.681 48.5997 187.387 52.9629 186.395 56.0261C185.364 59.2106 183.309 62.1215 180.707 64.5694L169.745 52.9151ZM172.207 57.9063C169.213 59.8939 164.414 63.212 158.474 67.3197L149.374 54.1596C155.248 50.098 160.204 46.67 163.356 44.5773L172.207 57.9063ZM158.474 67.3197C152.527 71.4316 145.509 76.285 138.234 81.2286L129.241 67.9953C136.454 63.0933 143.422 58.2754 149.374 54.1596L158.474 67.3197ZM123.037 67.9666C126.285 67.4128 129.608 66.9693 132.979 66.648L134.497 82.5759C131.521 82.8595 128.589 83.251 125.726 83.739L123.037 67.9666ZM149.897 68.0073C142.576 72.9645 135.319 77.9774 128.958 82.4143L119.805 69.2913C126.208 64.8253 133.528 59.7686 140.926 54.7589L149.897 68.0073ZM81.5779 44.1018C91.4538 38.4298 103.58 33.0724 116.259 33.6413C129.66 34.2424 142.036 41.3423 152.14 57.0564L138.682 65.7099C130.83 53.4973 122.811 49.9513 115.542 49.6252C107.552 49.2667 98.7322 52.7007 89.5465 57.9763L81.5779 44.1018ZM90.8457 41.4565C92.4382 44.3555 93.177 47.3244 93.5063 50.0947L77.6182 51.9834C77.462 50.6696 77.1774 49.8065 76.8224 49.1601L90.8457 41.4565ZM73.6867 29.972C75.9712 30.3354 79.4996 30.8021 82.741 32.6073C86.3274 34.6047 88.7713 37.6804 90.8457 41.4566L76.8224 49.1601C76.1631 47.96 75.6834 47.313 75.378 46.9679C75.112 46.6672 74.9846 46.6016 74.9561 46.5857C74.8954 46.5519 74.6872 46.4446 74.084 46.2983C73.4039 46.1333 72.5793 45.997 71.1726 45.7732L73.6867 29.972ZM61.6339 26.872C66.9174 28.894 70.5589 29.4743 73.6867 29.972L71.1726 45.7732C67.7075 45.2219 62.7647 44.4363 55.9152 41.8151L61.6339 26.872ZM32.3445 11.6688C43.0049 17.68 54.53 24.1533 61.6339 26.872L55.9152 41.8151C47.4233 38.5653 34.6379 31.3304 24.4857 25.6058L32.3445 11.6688ZM0.525671 8.24405C0.76204 5.74947 2.14154 3.32215 4.55435 1.89915C6.46679 0.771258 8.29787 0.714863 9.07878 0.728139C10.6964 0.755639 12.1064 1.22132 12.7516 1.44418C14.3413 1.99332 16.2323 2.89314 18.0681 3.82673C21.8664 5.75843 26.9889 8.64891 32.3444 11.6688L24.4857 25.6058C19.0018 22.5135 14.2335 19.8269 10.8151 18.0884C9.04245 17.1869 7.99362 16.7283 7.52758 16.5673C7.14488 16.4351 7.74805 16.7078 8.80682 16.7258C9.3083 16.7344 10.922 16.7191 12.6823 15.6809C14.9431 14.3476 16.2359 12.0585 16.4543 9.75335L0.525671 8.24405ZM66.4975 58.8808C56.8804 56.6738 40.3166 52.9112 26.4696 45.9093C12.9683 39.0823 -1.28511 27.3556 0.525667 8.24409L16.4543 9.7533C15.635 18.4004 21.5167 25.4756 33.6896 31.631C45.5169 37.6116 60.1666 41.0121 70.0763 43.2862L66.4975 58.8808ZM72.5849 60.3384C71.1635 59.9531 69.1598 59.4918 66.4975 58.8808L70.0763 43.2862C72.6103 43.8677 74.9753 44.409 76.7704 44.8955L72.5849 60.3384ZM25.6124 32.3165C28.1035 33.8266 37.4374 37.8567 48.0991 41.1009C53.3139 42.6877 58.5406 43.99 63.1004 44.6887C67.9112 45.4259 71.0214 45.3313 72.5284 44.911L76.8269 60.3228C71.9133 61.6933 65.9997 61.3197 60.677 60.5041C55.1032 59.65 49.0865 58.1257 43.4414 56.408C32.3834 53.0432 21.5317 48.553 17.3183 45.999L25.6124 32.3165ZM64.9557 73.2946C55.4297 72.3662 42.6262 70.1014 32.3254 65.4571C27.1833 63.1387 22.0433 59.9547 18.3725 55.4886C14.4878 50.7624 12.4077 44.7464 13.5772 37.825L29.3536 40.4905C29.0387 42.3542 29.4592 43.7793 30.7329 45.329C32.2205 47.1388 34.8968 49.0654 38.9018 50.8711C46.8952 54.4751 57.7091 56.5126 66.5077 57.3701L64.9557 73.2946ZM56.6695 63.6624C57.6912 62.3033 58.7864 61.0251 59.9382 59.8155L71.5252 70.8492C70.7625 71.6502 70.0753 72.4566 69.459 73.2765L56.6695 63.6624ZM49.5521 58.0714C54.6753 59.2522 59.3456 60.3026 63.4069 60.4768L62.7216 76.4621C56.9111 76.213 50.7415 74.765 45.9586 73.6626L49.5521 58.0714ZM149.987 67.9276C153.583 65.3535 156.933 62.9121 159.858 60.7311L169.422 73.5578C166.397 75.8134 162.962 78.317 159.3 80.9378L149.987 67.9276ZM163.354 74.7002C155.393 75.4975 155.393 75.4955 155.393 75.4936C155.393 75.4929 155.393 75.4909 155.393 75.4896C155.392 75.4869 155.392 75.4842 155.392 75.4813C155.391 75.4757 155.391 75.4698 155.39 75.4636C155.389 75.4512 155.388 75.4378 155.386 75.4232C155.384 75.3942 155.381 75.3608 155.378 75.3233C155.371 75.2483 155.364 75.1564 155.357 75.049C155.343 74.8347 155.328 74.556 155.319 74.2235C155.301 73.5637 155.304 72.6639 155.382 71.6145C155.532 69.6149 155.988 66.5948 157.467 63.6012L171.812 70.6877C171.593 71.1325 171.406 71.8903 171.337 72.8089C171.307 73.2187 171.307 73.5631 171.313 73.7827C171.316 73.89 171.32 73.9598 171.321 73.9841C171.322 73.996 171.322 73.996 171.321 73.983C171.321 73.9764 171.32 73.9666 171.319 73.9533C171.318 73.9467 171.317 73.9392 171.317 73.9308C171.316 73.9266 171.316 73.9222 171.315 73.9175C171.315 73.9152 171.315 73.9128 171.315 73.9104C171.314 73.9092 171.314 73.9073 171.314 73.9067C171.314 73.9048 171.314 73.9029 163.354 74.7002ZM155.312 72.8388C155.686 71.9512 156.15 71.0748 156.717 70.2328L169.99 79.1676C170.034 79.1028 170.054 79.059 170.059 79.0462L155.312 72.8388ZM155.523 66.4812C158.692 66.8315 161.767 67.4214 164.739 68.2104L160.632 83.6746C158.396 83.0809 156.106 82.6431 153.765 82.3843L155.523 66.4812ZM57.842 122.57C58.8465 122.055 59.8698 121.531 60.9098 120.998L68.2106 135.235C67.168 135.77 66.1427 136.295 65.1369 136.81L57.842 122.57ZM56.4163 128.692C56.4877 128.131 56.5597 127.583 56.6321 127.046L72.4883 129.186C72.4213 129.683 72.3545 130.192 72.2878 130.715L56.4163 128.692ZM60.6537 121.734C62.1727 121.574 63.7229 121.575 65.2822 121.758L63.4219 137.649C63.077 137.609 62.7121 137.606 62.3251 137.646L60.6537 121.734Z" fill="#002D59" mask="url(#path-5-outside-1_423_486)"/>
<path d="M210.588 141.447L210.253 142.487L209.197 142.767C199.225 145.413 181.021 147.5 172 147.5C166.647 147.5 158.428 146.706 150.475 145.937C150.012 145.892 149.55 145.848 149.089 145.803C145.267 145.435 141.568 145.086 138.284 144.835C147.035 149.928 153.843 157.16 158.751 164.895C165.233 175.108 168.5 186.35 168.5 195C168.5 204.435 166.974 214.703 165.464 222.565C164.707 226.506 163.951 229.864 163.383 232.239C163.099 233.426 162.861 234.369 162.695 235.017C162.611 235.341 162.546 235.591 162.501 235.761C162.478 235.846 162.46 235.912 162.449 235.956L162.435 236.007L162.431 236.021L162.43 236.024L162.43 236.026C162.43 236.026 162.43 236.026 160.5 235.5L162.43 236.026L162.022 237.521L160.473 237.5L86.473 236.5L85.5574 232.745C85.5536 232.738 85.5535 232.738 85.5533 232.738L85.5556 232.737L85.5561 232.737C85.5692 232.729 85.5948 232.714 85.6322 232.692C85.707 232.648 85.8286 232.573 85.9902 232.465C86.3134 232.249 86.7957 231.903 87.3825 231.409C88.5556 230.419 90.145 228.835 91.7173 226.506C94.8447 221.873 97.9852 214.171 97.5016 202.08C97.2735 196.377 94.9152 191.481 91.3606 186.739C88.5542 182.995 85.1092 179.476 81.4777 175.767C80.4535 174.721 79.4144 173.659 78.3707 172.574C69.0062 162.832 59.6611 151.496 61.5108 133.792C63.2582 117.067 65.1996 109.793 68.2028 105.099C69.6786 102.792 71.3712 101.176 73.1456 99.482L73.2604 99.3724C75.0813 97.6336 77.1041 95.6921 79.4782 92.5986C84.7889 85.6786 95.2286 79.7261 107.86 75.686C120.568 71.6215 135.802 69.3922 151.028 70.1535C166.595 70.9318 180.039 78.3947 190.254 87.3088C200.453 96.2095 207.618 106.716 210.598 113.929C215.44 125.653 212.511 135.476 210.588 141.447Z" fill="#F7CB4E" stroke="#002D59" stroke-width="4"/>
<path d="M179.291 123.064C178.745 129.017 183.104 134.251 189.013 134.767C194.922 135.283 200.164 130.888 200.709 124.936C201.255 118.984 196.896 113.75 190.987 113.233C185.078 112.717 179.836 117.112 179.291 123.064Z" fill="white" stroke="#002D59" stroke-width="2.39673"/>
<path d="M185.315 130.599C183.925 130.599 182.761 129.686 181.976 128.41C181.185 127.125 180.716 125.388 180.716 123.5C180.716 121.613 181.185 119.875 181.976 118.59C182.761 117.314 183.925 116.401 185.315 116.401C186.705 116.401 187.869 117.314 188.653 118.59C189.444 119.875 189.914 121.613 189.914 123.5C189.914 125.388 189.444 127.125 188.653 128.41C187.869 129.686 186.705 130.599 185.315 130.599Z" fill="#002D59" stroke="#002D59" stroke-width="1.19837"/>
</g>
<path d="M165.72 86.0371C161.621 83.1121 160.46 76.5738 162.991 72.72C162.991 72.72 161.747 60.2733 172.119 60.318C180.657 60.3548 184.784 67.7788 183.634 76.231C182.555 84.1653 172.288 90.7243 165.72 86.0371Z" fill="#FFE8A4"/>
<path d="M162.991 72.72C160.46 76.5738 161.621 83.1121 165.72 86.0371C172.288 90.7243 182.555 84.1653 183.634 76.231C184.784 67.7788 180.657 60.3548 172.119 60.318C161.747 60.2733 162.991 72.72 162.991 72.72ZM162.991 72.72C165.522 68.8661 171.071 66.941 173.526 70.6559C175.597 73.7891 172.779 78.9192 169.966 78.6635" stroke="#002D59" stroke-width="4" stroke-linecap="round"/>
<path d="M122.853 94.022C124.733 98.8558 130.726 101.899 134.979 100.574C134.979 100.574 146.605 105.431 148.885 95.3567C150.762 87.0638 144.585 80.8837 136.244 79.5205C128.414 78.2408 119.841 86.2762 122.853 94.022Z" fill="#FFE8A4"/>
<path d="M134.979 100.574C130.726 101.899 124.733 98.8558 122.853 94.022C119.841 86.2762 128.414 78.2408 136.244 79.5205C144.585 80.8837 150.762 87.0638 148.885 95.3567C146.605 105.431 134.979 100.574 134.979 100.574ZM134.979 100.574C139.232 99.2496 142.315 94.4316 139.312 90.9606C136.779 88.0329 131.242 89.2625 130.856 92.0656" stroke="#002D59" stroke-width="4" stroke-linecap="round"/>
<path d="M167.045 89.1584C165.265 93.9966 159.033 96.8256 154.453 95.284C154.453 95.284 142.317 99.7048 139.438 89.3413C137.068 80.8103 143.354 74.795 152.157 73.7836C160.422 72.8341 169.896 81.4055 167.045 89.1584Z" fill="#FFE8A4"/>
<path d="M154.453 95.284C159.033 96.8256 165.265 93.9966 167.045 89.1584C169.896 81.4055 160.422 72.8341 152.157 73.7836C143.354 74.795 137.068 80.8103 139.438 89.3413C142.317 99.7048 154.453 95.284 154.453 95.284ZM154.453 95.284C149.874 93.7424 146.378 88.6961 149.413 85.2965C151.973 82.4292 157.914 83.9318 158.45 86.8041" stroke="#002D59" stroke-width="4" stroke-linecap="round"/>
<path d="M57.6609 154.412C57.7007 149.749 62.0959 145.418 66.4169 145.312C66.4169 145.312 75.304 137.803 80.8518 145.722C85.4186 152.241 81.9395 159.297 74.8312 162.879C68.1583 166.241 57.5971 161.884 57.6609 154.412Z" fill="#FFE8A4"/>
<path d="M66.4169 145.312C62.0959 145.418 57.7007 149.749 57.6609 154.412C57.5971 161.884 68.1583 166.241 74.8312 162.879C81.9395 159.297 85.4186 152.241 80.8518 145.722C75.304 137.803 66.4169 145.312 66.4169 145.312ZM66.4169 145.312C70.738 145.207 75.2024 148.416 73.6716 152.244C72.3804 155.473 66.9247 156.032 65.6075 153.756" stroke="#002D59" stroke-width="4" stroke-linecap="round"/>
<path d="M72.8797 144.504C72.9059 139.232 77.9396 134.353 82.9059 134.252C82.9059 134.252 93.0893 125.797 99.4993 134.775C104.776 142.166 100.807 150.13 92.6512 154.15C84.9953 157.923 72.8378 152.952 72.8797 144.504Z" fill="#FFE8A4"/>
<path d="M82.9059 134.252C77.9396 134.353 72.9059 139.232 72.8797 144.504C72.8378 152.952 84.9953 157.923 92.6512 154.15C100.807 150.13 104.776 142.166 99.4993 134.775C93.0893 125.797 82.9059 134.252 82.9059 134.252ZM82.9059 134.252C87.8721 134.151 93.0171 137.798 91.2736 142.12C89.8031 145.765 83.5345 146.375 82.0109 143.796" stroke="#002D59" stroke-width="4" stroke-linecap="round"/>
<path d="M103.338 125.07C98.6479 127.484 92.0019 125.422 89.6268 121.21C89.6268 121.21 77.4388 116.384 82.4553 106.738C86.5848 98.7981 95.4781 98.5218 102.798 103.658C109.67 108.479 110.854 121.202 103.338 125.07Z" fill="#FFE8A4"/>
<path d="M89.6268 121.21C92.0019 125.422 98.6479 127.484 103.338 125.07C110.854 121.202 109.67 108.479 102.798 103.658C95.4781 98.5218 86.5848 98.7981 82.4553 106.738C77.4388 116.384 89.6268 121.21 89.6268 121.21ZM89.6268 121.21C87.2517 116.998 88.1203 110.9 92.7576 110.398C96.6689 109.975 100.095 115.068 98.5075 117.567" stroke="#002D59" stroke-width="4" stroke-linecap="round"/>
<path d="M133.582 114.373C130.264 118.753 123.268 120.104 119.313 117.51C119.313 117.51 106.046 119.062 106.637 108.123C107.124 99.1176 115.216 94.6214 124.12 95.6703C132.48 96.6548 138.898 107.355 133.582 114.373Z" fill="#FFE8A4"/>
<path d="M119.313 117.51C123.268 120.104 130.264 118.753 133.582 114.373C138.898 107.355 132.48 96.6548 124.12 95.6703C115.216 94.6214 107.124 99.1176 106.637 108.123C106.046 119.062 119.313 117.51 119.313 117.51ZM119.313 117.51C115.358 114.915 113.607 109.1 117.677 106.439C121.109 104.194 126.402 107.067 125.983 110.038" stroke="#002D59" stroke-width="4" stroke-linecap="round"/>
<path d="M65.7984 136.771C63.8028 131.799 66.5611 125.274 71.0878 123.273C71.0878 123.273 77.2107 111.408 86.5426 117.398C94.2246 122.329 93.6265 131.349 87.6692 138.262C82.0769 144.752 68.9962 144.739 65.7984 136.771Z" fill="#FFE8A4"/>
<path d="M71.0878 123.273C66.5611 125.274 63.8028 131.799 65.7984 136.771C68.9962 144.739 82.0769 144.752 87.6692 138.262C93.6265 131.349 94.2246 122.329 86.5426 117.398C77.2107 111.408 71.0878 123.273 71.0878 123.273ZM71.0878 123.273C75.6145 121.272 81.7414 122.731 81.7944 127.468C81.839 131.463 76.3099 134.443 73.9214 132.6" stroke="#002D59" stroke-width="4" stroke-linecap="round"/>
<path d="M66.7581 177.247C63.2553 173.436 63.7041 166.534 67.2954 163.115C67.2954 163.115 69.1499 150.171 79.8702 152.31C88.6951 154.071 91.0912 162.475 87.7684 170.862C84.6491 178.736 72.3711 183.352 66.7581 177.247Z" fill="#FFE8A4"/>
<path d="M67.2954 163.115C63.7041 166.534 63.2553 173.436 66.7581 177.247C72.3711 183.352 84.6491 178.736 87.7684 170.862C91.0912 162.475 88.6951 154.071 79.8702 152.31C69.1499 150.171 67.2954 163.115 67.2954 163.115ZM67.2954 163.115C70.8867 159.696 77.1138 158.852 78.7167 163.136C80.0686 166.75 75.8577 171.413 73.0123 170.584" stroke="#002D59" stroke-width="4" stroke-linecap="round"/>
<path d="M56.3208 157.135C62.0099 157.873 68.1242 153.598 69.075 148.697C69.075 148.697 79.9169 139.843 71.3229 132.198C64.2484 125.904 54.9883 128.679 49.2715 136.169C43.905 143.2 47.2044 155.953 56.3208 157.135Z" fill="#FFE8A4"/>
<path d="M69.075 148.697C68.1242 153.598 62.0099 157.873 56.3208 157.135C47.2044 155.953 43.905 143.2 49.2715 136.169C54.9883 128.679 64.2483 125.904 71.3229 132.198C79.9169 139.843 69.075 148.697 69.075 148.697ZM69.075 148.697C70.0257 143.796 66.9651 138.176 62.0094 139.275C57.8295 140.202 56.1096 146.319 58.632 148.2" stroke="#002D59" stroke-width="4" stroke-linecap="round"/>
<path d="M62.4997 115.895L60.3797 117.079L59.6327 114.778C53.4328 95.6776 53.2316 82.884 57.4901 73.1731C61.7297 63.5052 70.2132 57.3508 80.0885 51.127C90.0204 44.8676 101.567 39.0056 113.237 38.7915C125.143 38.5731 136.766 44.2254 146.714 60.025L147.736 61.6473L146.151 62.7436C135.565 70.0667 125.124 77.5012 117.328 83.1062C113.43 85.9084 110.195 88.2525 107.934 89.8959C106.804 90.7176 105.917 91.364 105.313 91.8049C105.011 92.0253 104.78 92.1943 104.624 92.3082L104.448 92.437L104.404 92.4696L104.393 92.4777L104.39 92.4797L104.39 92.4802C104.389 92.4803 104.389 92.4803 103.215 90.8682L104.389 92.4803L104.289 92.5538L104.181 92.6143L62.4997 115.895Z" fill="#13A0F0" stroke="#002D59" stroke-width="4"/>
<path d="M177.215 58.8769C173.347 62.5986 160.608 72.1952 147.003 81.8865C133.358 91.6051 118.582 101.603 110.544 106.132C97.566 113.445 83.2634 121.036 70.8148 127.566C67.2376 129.443 63.817 131.23 60.6255 132.897C52.6894 137.044 46.1707 140.45 42.1879 142.647C40.1583 143.766 38.1167 143.813 36.4214 142.758C34.8774 141.798 33.9739 140.138 33.5125 138.569C33.0411 136.966 32.9372 135.158 33.2512 133.539C33.5547 131.975 34.3367 130.204 36.0055 129.267C40.7796 126.585 46.2097 123.744 52.3492 120.532C65.0316 113.896 80.7415 105.676 99.9512 94.0114C115.507 84.5654 137.845 68.7842 153.284 57.8768C159.222 53.6815 164.139 50.2072 167.258 48.0918C170.186 46.1059 172.822 45.0119 175.071 44.7703C177.351 44.5256 179.449 45.1631 180.694 46.8965C181.891 48.5631 181.92 50.7264 181.288 52.734C180.647 54.7725 179.267 56.9014 177.215 58.8769Z" fill="#13A0F0" stroke="#002D59" stroke-width="4"/>
<path d="M59.363 95.5584L59.1339 94.4181C56.3988 94.1787 53.7167 93.4006 51.7249 91.3455C49.7168 89.2736 48.7345 86.2409 48.6696 82.2066L48.6258 79.484C46.7561 78.6384 45.0342 77.5487 43.5866 76.1391C40.8644 73.4882 39.271 69.8585 39.3155 65.0969L39.3381 62.6874L41.1001 63.0365C40.6217 62.8767 40.1463 62.7128 39.6746 62.5447C33.6916 60.4128 28.1112 57.5471 24.2258 53.7048C20.2716 49.7944 18.0433 44.8217 19.0313 38.7647L19.5135 35.8083L22.0586 37.3903C23.6137 38.3569 26.8288 39.9044 30.9918 41.6318C24.4072 38.458 18.2649 34.5215 13.6985 29.59C8.37765 23.844 5.18326 16.7211 5.97179 8.01273C6.03171 7.35104 6.37666 6.69439 7.02455 6.2888C7.55815 5.95475 8.10259 5.91585 8.40888 5.91773C9.027 5.92153 9.67827 6.11119 10.2076 6.29558C11.3444 6.69163 12.8718 7.41635 14.624 8.32533C18.1618 10.1607 22.9979 12.9503 28.2634 15.9957C28.4391 16.0972 28.6152 16.1991 28.7918 16.3013C39.2997 22.379 51.3773 29.3646 59.0407 32.3792C64.8942 34.6819 68.9201 35.347 72.2038 35.8894C73.243 36.061 74.2079 36.2204 75.1329 36.4156C77.0728 36.8248 78.8815 37.4128 80.5916 38.7206C82.2788 40.0109 83.7101 41.8781 85.1585 44.5687C87.3488 48.6375 87.4542 53.2348 87.2782 57.7846C87.2396 58.7841 87.1874 59.7842 87.135 60.7883C86.9416 64.4922 86.7455 68.2496 87.2167 72.2248C87.4547 74.2323 88.4983 78.4047 89.535 82.2271C90.0442 84.1049 90.5378 85.8485 90.9042 87.1232C91.0874 87.7603 91.2386 88.2796 91.3438 88.6392C91.3965 88.8189 91.4376 88.9588 91.4655 89.0533L91.4972 89.1607L91.5052 89.1877L91.5072 89.1943L91.5076 89.1958L91.5077 89.1962L89.5911 89.7639L91.5077 89.1962L91.8735 90.4278L90.9067 91.2718L81.8475 99.1804C78.2141 102.876 73.4094 105.025 69.0088 104.723C66.7663 104.568 64.6181 103.769 62.8767 102.192C61.1368 100.616 59.9297 98.3785 59.363 95.5584ZM62.074 82.3412C60.2038 82.2196 58.3117 82.0258 56.4657 81.723C58.323 82.1076 60.1962 82.3343 62.074 82.3412Z" fill="#002D59" stroke="#002D59" stroke-width="4"/>
<path d="M41.315 65.1179C51.4262 67.121 66.2048 72.3976 73.9235 66.5092C58.3929 66.2759 17.5473 60.2857 21.0047 39.0891C27.7191 43.2626 61.4196 56.6146 74.2555 52.9763C60.5498 49.1485 5.04902 40.3786 7.96316 8.19544C8.23843 5.15548 42.3746 27.9716 58.3108 34.2408C74.1376 40.4668 77.8859 35.2754 83.3983 45.5156C87.2197 52.6147 83.9844 61.9406 85.2311 72.4581C85.7488 76.8258 89.5911 89.7639 89.5911 89.7639L80.4731 97.7238C73.8026 104.562 63.3154 105.08 61.3233 95.1663C65.7685 93.9453 72.9081 96.596 77.1557 91.3799C64.7143 91.4396 50.9102 97.183 50.6688 82.1766C58.3078 84.8026 66.8716 85.8811 75.1142 80.4674C64.103 80.5113 41.1557 82.1465 41.315 65.1179Z" fill="#ECECEC"/>
<circle cx="85" cy="97.0001" r="15" fill="#F6CB4E" stroke="#002D59" stroke-width="4"/>
<circle cx="85" cy="97.0002" r="7" fill="#ECECEC" stroke="#002D59" stroke-width="3"/>
</g>
</svg>
