<svg width="256" height="256" viewBox="0 0 256 256" fill="none" xmlns="http://www.w3.org/2000/svg">
<mask id="mask0_423_486" style="mask-type:alpha" maskUnits="userSpaceOnUse" x="0" y="0" width="256" height="256">
<rect width="256" height="256" transform="matrix(-1 0 0 1 256 0)" fill="#D9D9D9"/>
</mask>
<g mask="url(#mask0_423_486)">
<circle cx="128" cy="128" r="121" fill="#ECECEC" stroke="#13A0F0" stroke-width="12"/>
<circle cx="128" cy="128" r="110" stroke="white" stroke-width="10"/>
<mask id="mask1_423_486" style="mask-type:alpha" maskUnits="userSpaceOnUse" x="23" y="-7" width="242" height="240">
<path d="M233 128C233 185.99 185.99 233 128 233C70.0101 233 23 185.99 23 128C23 70.0102 70.0101 23 128 23C156.092 23 241.157 -20.4679 260 -2.49999C280.054 16.623 233 98.1022 233 128Z" fill="#D9D9D9"/>
</mask>
<g mask="url(#mask1_423_486)">
<mask id="path-5-outside-1_423_486" maskUnits="userSpaceOnUse" x="26.5205" y="-18.1178" width="231.131" height="273.723" fill="black">
<rect fill="white" x="26.5205" y="-18.1178" width="231.131" height="273.723"/>
<path fill-rule="evenodd" clip-rule="evenodd" d="M208.245 65.867C210.368 65.3776 212.405 64.908 214.282 64.5484C214.395 74.248 206.645 77.7342 197.979 78.942C198.295 80.1751 198.545 81.4642 198.724 82.8157C200.854 82.4425 202.942 81.8729 204.965 81.1971C204.88 87.1472 202.554 89.7538 198.989 90.745C198.654 97.0196 197.127 104.437 194.17 113.389L186.843 109.379C187.589 110.839 188.273 112.601 188.912 114.849C194.192 117.626 199.07 120.128 203.557 122.43C209.674 125.567 215.064 128.332 219.759 130.916C223.494 132.971 221.593 143.846 215.524 140.566C212.899 139.147 209.18 137.217 204.691 134.909C205.317 135.536 205.913 136.211 206.476 136.93C211.856 143.811 208.583 156.266 199.471 157.402C198.861 157.478 198.245 157.498 197.632 157.466C196.289 160.935 192.398 163.333 188.253 163.953C188.444 164.702 188.515 165.176 188.515 165.176C192.113 168.525 192.576 175.269 189.081 178.985C184.498 183.859 175.434 181.704 170.577 176.538C163.229 183.961 156.774 191.324 156.392 201.15C155.444 225.575 169.457 232.933 169.457 232.933L95.473 233.757C95.473 233.757 89.4287 212.248 89.3905 194.172C89.3566 178.125 101.798 151.694 127.275 142.953C122.802 142.687 114.064 143.494 105.173 144.315L105.173 144.315C97.1684 145.055 89.04 145.806 83.7893 145.795C74.9231 145.776 56.8922 143.717 47.102 141.16C45.1928 135.399 42.453 126.38 46.9832 115.617C50.5368 107.175 60.567 93.5579 74.9474 84.2392C73.4115 82.4542 72.3303 80.3264 72.0141 78.0881C70.8471 69.8272 74.9578 62.5818 83.4942 62.5635C84.2506 62.5618 84.9454 62.625 85.5835 62.7436C83.4376 61.0618 81.7834 59.6916 80.7742 58.7422C73.2874 51.6998 77.1039 43.8611 88.2188 51.2418C91.2911 53.2819 96.1691 56.655 102.076 60.7396C108.025 64.8535 115.019 69.6892 122.262 74.6119C125.436 74.9144 128.563 75.3319 131.618 75.8528C125.237 71.4013 117.948 66.3665 110.589 61.3831C128.546 33.4564 151.376 40.0914 170.438 51.0391C170.681 48.997 171.192 47.081 172.166 45.3083C175.55 39.1488 178.275 38.715 183.57 37.8726C186.867 37.3481 191.159 36.6651 197.225 34.3435C205.023 31.3593 217.179 24.5052 227.585 18.6373C238.424 12.5252 247.366 7.48297 247.51 8.9987C250.14 36.7573 207.24 46.6024 187.713 51.0835C185.115 51.6798 182.931 52.181 181.322 52.6169C194.163 56.1984 227.83 43.2219 234.535 39.1577C237.503 56.7279 208.593 63.5464 190.268 65.3324C191.226 66.3376 192.117 67.38 192.936 68.4694C197.872 68.2578 203.292 67.0086 208.245 65.867ZM101.356 74.4327C97.7276 71.8352 94.3352 69.3628 91.3601 67.1445C93.0587 70.5829 92.6464 74.7002 92.6464 74.7002C92.9079 75.0888 93.1304 75.5051 93.3145 75.9425C95.9184 75.2511 98.6013 74.7373 101.356 74.4327ZM194.511 129.69C193.505 129.175 192.481 128.65 191.44 128.116C191.509 128.633 191.579 129.162 191.648 129.703C192.6 129.592 193.558 129.59 194.511 129.69Z"/>
</mask>
<path fill-rule="evenodd" clip-rule="evenodd" d="M208.245 65.867C210.368 65.3776 212.405 64.908 214.282 64.5484C214.395 74.248 206.645 77.7342 197.979 78.942C198.295 80.1751 198.545 81.4642 198.724 82.8157C200.854 82.4425 202.942 81.8729 204.965 81.1971C204.88 87.1472 202.554 89.7538 198.989 90.745C198.654 97.0196 197.127 104.437 194.17 113.389L186.843 109.379C187.589 110.839 188.273 112.601 188.912 114.849C194.192 117.626 199.07 120.128 203.557 122.43C209.674 125.567 215.064 128.332 219.759 130.916C223.494 132.971 221.593 143.846 215.524 140.566C212.899 139.147 209.18 137.217 204.691 134.909C205.317 135.536 205.913 136.211 206.476 136.93C211.856 143.811 208.583 156.266 199.471 157.402C198.861 157.478 198.245 157.498 197.632 157.466C196.289 160.935 192.398 163.333 188.253 163.953C188.444 164.702 188.515 165.176 188.515 165.176C192.113 168.525 192.576 175.269 189.081 178.985C184.498 183.859 175.434 181.704 170.577 176.538C163.229 183.961 156.774 191.324 156.392 201.15C155.444 225.575 169.457 232.933 169.457 232.933L95.473 233.757C95.473 233.757 89.4287 212.248 89.3905 194.172C89.3566 178.125 101.798 151.694 127.275 142.953C122.802 142.687 114.064 143.494 105.173 144.315L105.173 144.315C97.1684 145.055 89.04 145.806 83.7893 145.795C74.9231 145.776 56.8922 143.717 47.102 141.16C45.1928 135.399 42.453 126.38 46.9832 115.617C50.5368 107.175 60.567 93.5579 74.9474 84.2392C73.4115 82.4542 72.3303 80.3264 72.0141 78.0881C70.8471 69.8272 74.9578 62.5818 83.4942 62.5635C84.2506 62.5618 84.9454 62.625 85.5835 62.7436C83.4376 61.0618 81.7834 59.6916 80.7742 58.7422C73.2874 51.6998 77.1039 43.8611 88.2188 51.2418C91.2911 53.2819 96.1691 56.655 102.076 60.7396C108.025 64.8535 115.019 69.6892 122.262 74.6119C125.436 74.9144 128.563 75.3319 131.618 75.8528C125.237 71.4013 117.948 66.3665 110.589 61.3831C128.546 33.4564 151.376 40.0914 170.438 51.0391C170.681 48.997 171.192 47.081 172.166 45.3083C175.55 39.1488 178.275 38.715 183.57 37.8726C186.867 37.3481 191.159 36.6651 197.225 34.3435C205.023 31.3593 217.179 24.5052 227.585 18.6373C238.424 12.5252 247.366 7.48297 247.51 8.9987C250.14 36.7573 207.24 46.6024 187.713 51.0835C185.115 51.6798 182.931 52.181 181.322 52.6169C194.163 56.1984 227.83 43.2219 234.535 39.1577C237.503 56.7279 208.593 63.5464 190.268 65.3324C191.226 66.3376 192.117 67.38 192.936 68.4694C197.872 68.2578 203.292 67.0086 208.245 65.867ZM101.356 74.4327C97.7276 71.8352 94.3352 69.3628 91.3601 67.1445C93.0587 70.5829 92.6464 74.7002 92.6464 74.7002C92.9079 75.0888 93.1304 75.5051 93.3145 75.9425C95.9184 75.2511 98.6013 74.7373 101.356 74.4327ZM194.511 129.69C193.505 129.175 192.481 128.65 191.44 128.116C191.509 128.633 191.579 129.162 191.648 129.703C192.6 129.592 193.558 129.59 194.511 129.69Z" fill="#002D59"/>
<path d="M214.282 64.5484L222.281 64.455L222.17 54.8915L212.776 56.6914L214.282 64.5484ZM208.245 65.867L210.041 73.6626L210.041 73.6626L208.245 65.867ZM197.979 78.942L196.875 71.0186L188.008 72.2544L190.229 80.9268L197.979 78.942ZM198.724 82.8157L190.794 83.8687L191.891 92.1349L200.105 90.6956L198.724 82.8157ZM204.965 81.1971L212.964 81.3119L213.126 70.0357L202.43 73.6094L204.965 81.1971ZM198.989 90.745L196.846 83.0375L191.307 84.5776L191.001 90.3181L198.989 90.745ZM194.17 113.389L190.329 120.407L198.754 125.018L201.766 115.898L194.17 113.389ZM186.843 109.379L190.683 102.361L167.902 89.8939L179.719 113.019L186.843 109.379ZM188.912 114.849L181.217 117.037L182.155 120.333L185.188 121.929L188.912 114.849ZM203.557 122.43L207.209 115.312L207.209 115.312L203.557 122.43ZM219.759 130.916L215.902 137.925L215.902 137.925L219.759 130.916ZM215.524 140.566L219.328 133.528L219.328 133.528L215.524 140.566ZM204.691 134.909L208.349 127.794L199.027 140.558L204.691 134.909ZM206.476 136.93L200.173 141.858L200.174 141.858L206.476 136.93ZM199.471 157.402L200.461 165.341L200.461 165.341L199.471 157.402ZM197.632 157.466L198.041 149.477L192.26 149.181L190.171 154.579L197.632 157.466ZM188.253 163.953L187.07 156.041L178.311 157.351L180.502 165.932L188.253 163.953ZM188.515 165.176L180.602 166.353L181.014 169.124L183.065 171.032L188.515 165.176ZM189.081 178.985L194.909 184.466L194.909 184.466L189.081 178.985ZM170.577 176.538L176.405 171.058L170.725 165.017L164.891 170.91L170.577 176.538ZM156.392 201.15L164.386 201.46L164.386 201.46L156.392 201.15ZM169.457 232.933L169.546 240.932L173.176 225.849L169.457 232.933ZM95.473 233.757L87.7713 235.921L89.4303 241.825L95.5621 241.756L95.473 233.757ZM89.3905 194.172L97.3905 194.155L89.3905 194.172ZM127.275 142.953L129.871 150.52L127.751 134.967L127.275 142.953ZM105.173 144.315L104.437 136.349L104.242 136.367L104.047 136.395L105.173 144.315ZM105.173 144.315L105.909 152.281L106.104 152.263L106.299 152.236L105.173 144.315ZM83.7893 145.795L83.8058 137.795L83.8058 137.795L83.7893 145.795ZM47.102 141.16L39.5082 143.676L40.8754 147.802L45.0803 148.9L47.102 141.16ZM46.9832 115.617L54.3567 118.721L54.3567 118.721L46.9832 115.617ZM74.9474 84.2392L79.2979 90.9528L86.9893 85.9687L81.0115 79.0213L74.9474 84.2392ZM72.0141 78.0881L64.0928 79.2072L64.0928 79.2072L72.0141 78.0881ZM83.4942 62.5635L83.4771 54.5635L83.477 54.5635L83.4942 62.5635ZM85.5835 62.7436L84.1221 70.609L90.5185 56.4471L85.5835 62.7436ZM80.7742 58.7422L86.2555 52.9151L86.2554 52.9151L80.7742 58.7422ZM88.2188 51.2418L83.7934 57.9063L83.7934 57.9063L88.2188 51.2418ZM102.076 60.7396L106.626 54.1596L106.626 54.1596L102.076 60.7396ZM122.262 74.6119L117.766 81.2286L119.462 82.3813L121.503 82.5759L122.262 74.6119ZM131.618 75.8528L130.274 83.739L136.195 69.2913L131.618 75.8528ZM110.589 61.3831L103.86 57.0564L99.6346 63.6272L106.103 68.0073L110.589 61.3831ZM170.438 51.0391L166.453 57.9763L176.953 64.0063L178.382 51.9834L170.438 51.0391ZM172.166 45.3083L179.178 49.1601L179.178 49.1601L172.166 45.3083ZM183.57 37.8726L182.313 29.972L182.313 29.972L183.57 37.8726ZM197.225 34.3435L194.366 26.872L194.366 26.872L197.225 34.3435ZM227.585 18.6373L223.656 11.6688L223.656 11.6688L227.585 18.6373ZM247.51 8.9987L255.474 8.24409L255.474 8.24405L247.51 8.9987ZM187.713 51.0835L189.502 58.8808L189.502 58.8808L187.713 51.0835ZM181.322 52.6169L179.23 44.8955L151.148 52.5064L179.173 60.3228L181.322 52.6169ZM234.535 39.1577L242.423 37.825L240.46 26.2105L230.388 32.3165L234.535 39.1577ZM190.268 65.3324L189.492 57.3701L173.155 58.9623L184.475 70.8492L190.268 65.3324ZM192.936 68.4694L186.541 73.2765L189.071 76.6425L193.278 76.4621L192.936 68.4694ZM101.356 74.4327L102.235 82.3843L123.001 80.0885L106.013 67.9276L101.356 74.4327ZM91.3601 67.1445L96.1422 60.7311L84.1876 70.6877L91.3601 67.1445ZM92.6464 74.7002L84.6862 73.9029L84.3986 76.774L86.0099 79.1676L92.6464 74.7002ZM93.3145 75.9425L85.9411 79.0462L88.6411 85.4606L95.3675 83.6746L93.3145 75.9425ZM194.511 129.69L193.675 137.646L198.158 122.57L194.511 129.69ZM191.44 128.116L195.09 120.998L181.464 114.01L183.512 129.186L191.44 128.116ZM191.648 129.703L183.712 130.715L184.714 138.57L192.578 137.649L191.648 129.703ZM212.776 56.6914C210.726 57.0843 208.536 57.5901 206.448 58.0714L210.041 73.6626C212.2 73.1651 214.085 72.7317 215.787 72.4055L212.776 56.6914ZM199.084 86.8654C203.921 86.1911 209.598 84.7675 214.195 81.3501C219.263 77.5831 222.368 71.8627 222.281 64.455L206.282 64.6419C206.298 65.9688 206.048 66.7318 205.831 67.1714C205.614 67.6097 205.27 68.0486 204.65 68.5092C203.234 69.5616 200.703 70.485 196.875 71.0186L199.084 86.8654ZM206.655 81.7627C206.435 80.1088 206.126 78.5081 205.729 76.9572L190.229 80.9268C190.464 81.8421 190.654 82.8196 190.794 83.8687L206.655 81.7627ZM202.43 73.6094C200.688 74.1915 198.993 74.6467 197.343 74.9358L200.105 90.6956C202.715 90.2382 205.197 89.5544 207.5 88.7848L202.43 73.6094ZM201.133 98.4526C204.308 97.5695 207.562 95.7491 209.888 92.3425C212.109 89.0901 212.908 85.2301 212.964 81.3119L196.966 81.0823C196.937 83.1142 196.53 83.5325 196.676 83.3187C196.756 83.2009 196.881 83.0791 197.001 82.9995C197.1 82.934 197.085 82.9711 196.846 83.0375L201.133 98.4526ZM201.766 115.898C204.866 106.514 206.593 98.3706 206.978 91.172L191.001 90.3181C190.715 95.6686 189.388 102.36 186.574 110.881L201.766 115.898ZM183.002 116.397L190.329 120.407L198.011 106.372L190.683 102.361L183.002 116.397ZM196.607 112.661C195.859 110.029 195 107.761 193.966 105.739L179.719 113.019C180.177 113.917 180.687 115.172 181.217 117.037L196.607 112.661ZM185.188 121.929C190.51 124.728 195.422 127.248 199.906 129.548L207.209 115.312C202.718 113.009 197.875 110.524 192.637 107.769L185.188 121.929ZM199.906 129.548C206.053 132.701 211.33 135.409 215.902 137.925L223.616 123.907C218.798 121.256 213.295 118.434 207.209 115.312L199.906 129.548ZM215.902 137.925C214.906 137.376 214.332 136.658 214.045 136.182C213.769 135.724 213.697 135.398 213.683 135.325C213.665 135.236 213.676 135.239 213.672 135.318C213.67 135.35 213.666 135.382 213.662 135.41C213.657 135.439 213.652 135.453 213.653 135.45C213.654 135.448 213.664 135.415 213.691 135.355C213.718 135.296 213.77 135.193 213.859 135.058C214.029 134.804 214.414 134.32 215.123 133.891C215.888 133.427 216.818 133.16 217.762 133.179C218.654 133.197 219.202 133.46 219.328 133.528L211.72 147.603C215.231 149.501 219.565 149.909 223.42 147.571C226.711 145.575 228.282 142.379 228.983 140.033C229.722 137.562 229.893 134.785 229.37 132.179C228.885 129.759 227.458 126.021 223.616 123.907L215.902 137.925ZM219.328 133.528C216.621 132.065 212.834 130.1 208.349 127.794L201.034 142.024C205.527 144.334 209.177 146.229 211.72 147.603L219.328 133.528ZM212.778 132.003C212.021 131.035 211.212 130.118 210.356 129.259L199.027 140.558C199.421 140.953 199.805 141.387 200.173 141.858L212.778 132.003ZM200.461 165.341C208.915 164.286 214.086 157.979 216.045 151.704C217.968 145.541 217.363 137.867 212.778 132.003L200.174 141.858C200.968 142.875 201.417 144.868 200.771 146.937C200.161 148.893 199.14 149.381 198.481 149.464L200.461 165.341ZM197.222 165.456C198.279 165.51 199.363 165.478 200.461 165.341L198.481 149.464C198.358 149.479 198.212 149.486 198.041 149.477L197.222 165.456ZM189.436 171.865C195.312 170.986 202.362 167.409 205.092 160.354L190.171 154.579C190.219 154.454 190.158 154.718 189.543 155.13C188.936 155.536 188.059 155.893 187.07 156.041L189.436 171.865ZM188.515 165.176C196.428 164 196.428 163.999 196.428 163.998C196.428 163.998 196.428 163.997 196.428 163.997C196.427 163.996 196.427 163.995 196.427 163.994C196.427 163.993 196.427 163.991 196.426 163.989C196.426 163.985 196.425 163.982 196.425 163.978C196.423 163.97 196.422 163.962 196.421 163.953C196.418 163.935 196.415 163.916 196.412 163.894C196.405 163.851 196.396 163.801 196.387 163.743C196.367 163.627 196.34 163.481 196.307 163.309C196.24 162.965 196.142 162.511 196.004 161.974L180.502 165.932C180.556 166.144 180.589 166.302 180.605 166.382C180.613 166.422 180.616 166.442 180.615 166.438C180.615 166.436 180.614 166.429 180.611 166.415C180.61 166.407 180.609 166.399 180.607 166.389C180.607 166.383 180.606 166.378 180.605 166.372C180.604 166.369 180.604 166.366 180.603 166.363C180.603 166.361 180.603 166.359 180.603 166.358C180.603 166.357 180.602 166.356 180.602 166.355C180.602 166.355 180.602 166.354 180.602 166.354C180.602 166.353 180.602 166.353 188.515 165.176ZM194.909 184.466C198.439 180.713 199.662 175.819 199.448 171.543C199.234 167.287 197.555 162.661 193.965 159.32L183.065 171.032C183.049 171.017 183.143 171.102 183.253 171.359C183.363 171.618 183.448 171.961 183.468 172.343C183.511 173.206 183.218 173.542 183.253 173.505L194.909 184.466ZM164.748 182.018C168.395 185.897 173.468 188.558 178.614 189.417C183.748 190.275 190.215 189.457 194.909 184.466L183.253 173.505C183.239 173.52 183.227 173.53 183.202 173.544C183.173 173.561 183.097 173.599 182.952 173.636C182.643 173.716 182.074 173.774 181.249 173.636C179.502 173.344 177.615 172.345 176.405 171.058L164.748 182.018ZM164.386 201.46C164.633 195.103 168.734 189.772 176.262 182.166L164.891 170.91C157.724 178.15 148.915 187.544 148.398 200.84L164.386 201.46ZM169.457 232.933C173.176 225.849 173.181 225.852 173.185 225.854C173.187 225.855 173.192 225.858 173.195 225.859C173.201 225.862 173.206 225.866 173.212 225.869C173.223 225.874 173.234 225.88 173.244 225.885C173.263 225.896 173.279 225.905 173.292 225.912C173.319 225.927 173.333 225.935 173.337 225.937C173.343 225.941 173.305 225.919 173.229 225.869C173.077 225.77 172.775 225.562 172.373 225.23C171.569 224.567 170.37 223.416 169.148 221.649C166.778 218.223 163.978 211.993 164.386 201.46L148.398 200.84C147.859 214.733 151.591 224.394 155.99 230.752C158.153 233.878 160.398 236.093 162.192 237.573C163.088 238.312 163.874 238.87 164.484 239.268C164.79 239.467 165.052 239.627 165.263 239.751C165.369 239.813 165.462 239.865 165.542 239.909C165.581 239.931 165.618 239.951 165.65 239.969C165.667 239.978 165.682 239.986 165.697 239.994C165.704 239.998 165.711 240.001 165.718 240.005C165.722 240.007 165.727 240.01 165.729 240.01C165.733 240.013 165.738 240.016 169.457 232.933ZM95.5621 241.756L169.546 240.932L169.368 224.933L95.3838 225.757L95.5621 241.756ZM81.3905 194.189C81.4112 203.984 83.0435 214.464 84.5991 222.301C85.3854 226.262 86.1703 229.637 86.7609 232.03C87.0565 233.228 87.3044 234.184 87.4805 234.848C87.5686 235.18 87.6389 235.44 87.6883 235.621C87.713 235.711 87.7325 235.782 87.7465 235.832C87.7535 235.857 87.7591 235.877 87.7632 235.892C87.7653 235.9 87.767 235.906 87.7683 235.911C87.769 235.913 87.7696 235.915 87.7701 235.917C87.7703 235.918 87.7706 235.919 87.7708 235.919C87.771 235.92 87.7713 235.921 95.473 233.757C103.175 231.593 103.175 231.593 103.175 231.594C103.175 231.594 103.175 231.595 103.175 231.595C103.175 231.595 103.175 231.595 103.175 231.595C103.175 231.595 103.175 231.593 103.174 231.59C103.172 231.584 103.169 231.573 103.165 231.557C103.156 231.525 103.141 231.473 103.122 231.401C103.083 231.258 103.023 231.038 102.946 230.746C102.791 230.164 102.567 229.298 102.295 228.197C101.751 225.993 101.023 222.861 100.293 219.186C98.8168 211.749 97.408 202.436 97.3905 194.155L81.3905 194.189ZM124.679 135.386C109.924 140.449 99.1141 150.577 92.053 161.472C85.0665 172.252 81.3697 184.366 81.3905 194.189L97.3905 194.155C97.3773 187.932 99.8845 178.807 105.48 170.174C111 161.656 119.149 154.199 129.871 150.52L124.679 135.386ZM105.909 152.281C115.175 151.425 123.102 150.719 126.8 150.939L127.751 134.967C122.503 134.655 112.953 135.563 104.437 136.349L105.909 152.281ZM106.299 152.236L106.299 152.236L104.047 136.395L104.047 136.395L106.299 152.236ZM83.7728 153.795C89.4946 153.806 98.0816 153.004 105.909 152.281L104.437 136.349C96.2551 137.105 88.5855 137.805 83.8058 137.795L83.7728 153.795ZM45.0803 148.9C55.5964 151.647 74.3076 153.775 83.7728 153.795L83.8058 137.795C75.5385 137.778 58.188 135.787 49.1238 133.419L45.0803 148.9ZM39.6097 112.514C33.8787 126.13 37.4955 137.603 39.5082 143.676L54.6959 138.643C52.8901 133.194 51.0274 126.631 54.3567 118.721L39.6097 112.514ZM70.5968 77.5256C54.9085 87.6919 43.8038 102.55 39.6097 112.514L54.3567 118.721C57.2698 111.8 66.2256 99.4239 79.2979 90.9528L70.5968 77.5256ZM64.0928 79.2072C64.6618 83.2352 66.5461 86.7409 68.8832 89.4571L81.0115 79.0213C80.2769 78.1676 79.9988 77.4176 79.9355 76.9691L64.0928 79.2072ZM83.477 54.5635C76.6831 54.5781 71.0112 57.6082 67.5144 62.7151C64.193 67.566 63.2966 73.5714 64.0928 79.2072L79.9355 76.9691C79.5646 74.3439 80.1401 72.5961 80.7163 71.7545C80.985 71.3622 81.2793 71.1123 81.6107 70.9408C81.9439 70.7685 82.5287 70.5656 83.5114 70.5634L83.477 54.5635ZM87.0449 54.8782C85.882 54.6621 84.6901 54.5609 83.4771 54.5635L83.5113 70.5634C83.8112 70.5628 84.0088 70.5879 84.1221 70.609L87.0449 54.8782ZM90.5185 56.4471C88.3988 54.7858 86.9854 53.6017 86.2555 52.9151L75.2929 64.5693C76.5814 65.7814 78.4764 67.3377 80.6485 69.0401L90.5185 56.4471ZM86.2554 52.9151C85.7085 52.4006 85.3454 51.954 85.1175 51.6166C84.8851 51.2727 84.8243 51.0892 84.8267 51.0966C84.8292 51.1042 84.8527 51.1783 84.8715 51.3166C84.8903 51.4545 84.9067 51.6736 84.8838 51.9609C84.8372 52.5492 84.6202 53.4314 83.9696 54.3177C83.2993 55.2307 82.4277 55.7918 81.6533 56.0635C80.9353 56.3154 80.4727 56.2654 80.4626 56.2643C80.4484 56.2628 80.7296 56.2945 81.3366 56.5461C81.9331 56.7935 82.7537 57.216 83.7934 57.9063L92.6443 44.5773C89.2625 42.3317 85.7071 40.7341 82.1647 40.3551C78.5462 39.9679 73.9912 40.8728 71.0721 44.849C68.3186 48.5997 68.613 52.9629 69.605 56.0261C70.6363 59.2106 72.6906 62.1215 75.2929 64.5694L86.2554 52.9151ZM83.7934 57.9063C86.7865 59.8939 91.5858 63.212 97.5261 67.3197L106.626 54.1596C100.752 50.098 95.7958 46.67 92.6443 44.5773L83.7934 57.9063ZM97.5261 67.3197C103.473 71.4316 110.491 76.285 117.766 81.2286L126.759 67.9953C119.546 63.0933 112.578 58.2754 106.626 54.1596L97.5261 67.3197ZM132.963 67.9666C129.715 67.4128 126.392 66.9693 123.021 66.648L121.503 82.5759C124.479 82.8595 127.411 83.251 130.274 83.739L132.963 67.9666ZM106.103 68.0073C113.424 72.9645 120.681 77.9774 127.042 82.4143L136.195 69.2913C129.792 64.8253 122.472 59.7686 115.074 54.7589L106.103 68.0073ZM174.422 44.1018C164.546 38.4298 152.42 33.0724 139.741 33.6413C126.34 34.2424 113.964 41.3423 103.86 57.0564L117.318 65.7099C125.17 53.4973 133.189 49.9513 140.458 49.6252C148.448 49.2667 157.268 52.7007 166.453 57.9763L174.422 44.1018ZM165.154 41.4565C163.562 44.3555 162.823 47.3244 162.494 50.0947L178.382 51.9834C178.538 50.6696 178.823 49.8065 179.178 49.1601L165.154 41.4565ZM182.313 29.972C180.029 30.3354 176.5 30.8021 173.259 32.6073C169.673 34.6047 167.229 37.6804 165.154 41.4566L179.178 49.1601C179.837 47.96 180.317 47.313 180.622 46.9679C180.888 46.6672 181.015 46.6016 181.044 46.5857C181.105 46.5519 181.313 46.4446 181.916 46.2983C182.596 46.1333 183.421 45.997 184.827 45.7732L182.313 29.972ZM194.366 26.872C189.083 28.894 185.441 29.4743 182.313 29.972L184.827 45.7732C188.292 45.2219 193.235 44.4363 200.085 41.8151L194.366 26.872ZM223.656 11.6688C212.995 17.68 201.47 24.1533 194.366 26.872L200.085 41.8151C208.577 38.5653 221.362 31.3304 231.514 25.6058L223.656 11.6688ZM255.474 8.24405C255.238 5.74947 253.858 3.32215 251.446 1.89915C249.533 0.771258 247.702 0.714863 246.921 0.728139C245.304 0.755639 243.894 1.22132 243.248 1.44418C241.659 1.99332 239.768 2.89314 237.932 3.82673C234.134 5.75843 229.011 8.64891 223.656 11.6688L231.514 25.6058C236.998 22.5135 241.766 19.8269 245.185 18.0884C246.958 17.1869 248.006 16.7283 248.472 16.5673C248.855 16.4351 248.252 16.7078 247.193 16.7258C246.692 16.7344 245.078 16.7191 243.318 15.6809C241.057 14.3476 239.764 12.0585 239.546 9.75335L255.474 8.24405ZM189.502 58.8808C199.12 56.6738 215.683 52.9112 229.53 45.9093C243.032 39.0823 257.285 27.3556 255.474 8.24409L239.546 9.7533C240.365 18.4004 234.483 25.4756 222.31 31.631C210.483 37.6116 195.833 41.0121 185.924 43.2862L189.502 58.8808ZM183.415 60.3384C184.836 59.9531 186.84 59.4918 189.502 58.8808L185.924 43.2862C183.39 43.8677 181.025 44.409 179.23 44.8955L183.415 60.3384ZM230.388 32.3165C227.897 33.8266 218.563 37.8567 207.901 41.1009C202.686 42.6877 197.459 43.99 192.9 44.6887C188.089 45.4259 184.979 45.3313 183.472 44.911L179.173 60.3228C184.087 61.6933 190 61.3197 195.323 60.5041C200.897 59.65 206.913 58.1257 212.559 56.408C223.617 53.0432 234.468 48.553 238.682 45.999L230.388 32.3165ZM191.044 73.2946C200.57 72.3662 213.374 70.1014 223.675 65.4571C228.817 63.1387 233.957 59.9547 237.628 55.4886C241.512 50.7624 243.592 44.7464 242.423 37.825L226.646 40.4905C226.961 42.3542 226.541 43.7793 225.267 45.329C223.779 47.1388 221.103 49.0654 217.098 50.8711C209.105 54.4751 198.291 56.5126 189.492 57.3701L191.044 73.2946ZM199.33 63.6624C198.309 62.3033 197.214 61.0251 196.062 59.8155L184.475 70.8492C185.238 71.6502 185.925 72.4566 186.541 73.2765L199.33 63.6624ZM206.448 58.0714C201.325 59.2522 196.654 60.3026 192.593 60.4768L193.278 76.4621C199.089 76.213 205.258 74.765 210.041 73.6626L206.448 58.0714ZM106.013 67.9276C102.417 65.3535 99.0673 62.9121 96.1422 60.7311L86.578 73.5578C89.603 75.8134 93.0384 78.317 96.6996 80.9378L106.013 67.9276ZM92.6464 74.7002C100.607 75.4975 100.607 75.4955 100.607 75.4936C100.607 75.4929 100.607 75.4909 100.607 75.4896C100.608 75.4869 100.608 75.4842 100.608 75.4813C100.609 75.4757 100.609 75.4698 100.61 75.4636C100.611 75.4512 100.612 75.4378 100.614 75.4232C100.616 75.3942 100.619 75.3608 100.622 75.3233C100.629 75.2483 100.636 75.1564 100.643 75.049C100.657 74.8347 100.672 74.556 100.681 74.2235C100.699 73.5637 100.696 72.6639 100.618 71.6145C100.468 69.6149 100.012 66.5948 98.5327 63.6012L84.1876 70.6877C84.4073 71.1325 84.5938 71.8903 84.6625 72.8089C84.6932 73.2187 84.6933 73.5631 84.6873 73.7827C84.6843 73.89 84.6801 73.9598 84.6785 73.9841C84.6777 73.996 84.6776 73.996 84.6787 73.983C84.6792 73.9764 84.6801 73.9666 84.6813 73.9533C84.6819 73.9467 84.6826 73.9392 84.6834 73.9308C84.6838 73.9266 84.6843 73.9222 84.6847 73.9175C84.685 73.9152 84.6852 73.9128 84.6854 73.9104C84.6856 73.9092 84.6857 73.9073 84.6858 73.9067C84.686 73.9048 84.6862 73.9029 92.6464 74.7002ZM100.688 72.8388C100.314 71.9512 99.8496 71.0748 99.2828 70.2328L86.0099 79.1676C85.9663 79.1028 85.9465 79.059 85.9411 79.0462L100.688 72.8388ZM100.477 66.4812C97.3084 66.8315 94.2331 67.4214 91.2615 68.2104L95.3675 83.6746C97.6036 83.0809 99.8942 82.6431 102.235 82.3843L100.477 66.4812ZM198.158 122.57C197.153 122.055 196.13 121.531 195.09 120.998L187.789 135.235C188.832 135.77 189.857 136.295 190.863 136.81L198.158 122.57ZM199.584 128.692C199.512 128.131 199.44 127.583 199.368 127.046L183.512 129.186C183.579 129.683 183.645 130.192 183.712 130.715L199.584 128.692ZM195.346 121.734C193.827 121.574 192.277 121.575 190.718 121.758L192.578 137.649C192.923 137.609 193.288 137.606 193.675 137.646L195.346 121.734Z" fill="#002D59" mask="url(#path-5-outside-1_423_486)"/>
<path d="M45.4118 141.447L45.7466 142.487L46.8026 142.767C56.7747 145.413 74.9788 147.5 84 147.5C89.3527 147.5 97.5719 146.706 105.525 145.937C105.988 145.892 106.45 145.848 106.911 145.803C110.733 145.435 114.432 145.086 117.716 144.835C108.965 149.928 102.157 157.16 97.2488 164.895C90.7673 175.108 87.5 186.35 87.5 195C87.5 204.435 89.0264 214.703 90.5359 222.565C91.2926 226.506 92.0493 229.864 92.6174 232.239C92.9015 233.426 93.1386 234.369 93.3052 235.017C93.3886 235.341 93.4543 235.591 93.4995 235.761C93.5221 235.846 93.5395 235.912 93.5515 235.956L93.5652 236.007L93.5689 236.021L93.57 236.024L93.5703 236.026C93.5704 236.026 93.5705 236.026 95.5 235.5L93.5705 236.026L93.9781 237.521L95.527 237.5L169.527 236.5L170.443 232.745C170.446 232.738 170.447 232.738 170.447 232.738L170.444 232.737L170.444 232.737C170.431 232.729 170.405 232.714 170.368 232.692C170.293 232.648 170.171 232.573 170.01 232.465C169.687 232.249 169.204 231.903 168.618 231.409C167.444 230.419 165.855 228.835 164.283 226.506C161.155 221.873 158.015 214.171 158.498 202.08C158.727 196.377 161.085 191.481 164.639 186.739C167.446 182.995 170.891 179.476 174.522 175.767C175.546 174.721 176.586 173.659 177.629 172.574C186.994 162.832 196.339 151.496 194.489 133.792C192.742 117.067 190.8 109.793 187.797 105.099C186.321 102.792 184.629 101.176 182.854 99.482L182.74 99.3724C180.919 97.6336 178.896 95.6921 176.522 92.5986C171.211 85.6786 160.771 79.7261 148.14 75.686C135.432 71.6215 120.198 69.3922 104.972 70.1535C89.4046 70.9318 75.961 78.3947 65.7461 87.3088C55.5467 96.2095 48.3816 106.716 45.4021 113.929C40.5599 125.653 43.4889 135.476 45.4118 141.447Z" fill="#F7CB4E" stroke="#002D59" stroke-width="4"/>
<path d="M76.7095 123.064C77.2553 129.017 72.8962 134.251 66.9873 134.767C61.0784 135.283 55.8364 130.888 55.2906 124.936C54.7447 118.984 59.1038 113.75 65.0127 113.233C70.9216 112.717 76.1636 117.112 76.7095 123.064Z" fill="white" stroke="#002D59" stroke-width="2.39673"/>
<path d="M70.6852 130.599C72.0755 130.599 73.2391 129.686 74.024 128.41C74.8148 127.125 75.2844 125.388 75.2844 123.5C75.2844 121.613 74.8148 119.875 74.024 118.59C73.2391 117.314 72.0755 116.401 70.6852 116.401C69.295 116.401 68.1314 117.314 67.3465 118.59C66.5557 119.875 66.0861 121.613 66.0861 123.5C66.0861 125.388 66.5557 127.125 67.3465 128.41C68.1314 129.686 69.295 130.599 70.6852 130.599Z" fill="#002D59" stroke="#002D59" stroke-width="1.19837"/>
</g>
<path d="M90.2798 86.0371C94.3787 83.1121 95.5398 76.5738 93.0089 72.72C93.0089 72.72 94.2526 60.2733 83.8807 60.318C75.3426 60.3548 71.2158 67.7788 72.3656 76.231C73.445 84.1653 83.7116 90.7243 90.2798 86.0371Z" fill="#FFE8A4"/>
<path d="M93.0089 72.72C95.5398 76.5738 94.3787 83.1121 90.2798 86.0371C83.7116 90.7243 73.445 84.1653 72.3656 76.231C71.2158 67.7788 75.3426 60.3548 83.8807 60.318C94.2526 60.2733 93.0089 72.72 93.0089 72.72ZM93.0089 72.72C90.4781 68.8661 84.9292 66.941 82.4739 70.6559C80.4029 73.7891 83.2214 78.9192 86.0338 78.6635" stroke="#002D59" stroke-width="4" stroke-linecap="round"/>
<path d="M133.147 94.022C131.267 98.8558 125.274 101.899 121.021 100.574C121.021 100.574 109.395 105.431 107.115 95.3567C105.238 87.0638 111.415 80.8837 119.756 79.5205C127.586 78.2408 136.159 86.2762 133.147 94.022Z" fill="#FFE8A4"/>
<path d="M121.021 100.574C125.274 101.899 131.267 98.8558 133.147 94.022C136.159 86.2762 127.586 78.2408 119.756 79.5205C111.415 80.8837 105.238 87.0638 107.115 95.3567C109.395 105.431 121.021 100.574 121.021 100.574ZM121.021 100.574C116.768 99.2496 113.685 94.4316 116.688 90.9606C119.221 88.0329 124.758 89.2625 125.144 92.0656" stroke="#002D59" stroke-width="4" stroke-linecap="round"/>
<path d="M88.9554 89.1584C90.7347 93.9966 96.967 96.8256 101.547 95.284C101.547 95.284 113.683 99.7048 116.562 89.3413C118.932 80.8103 112.646 74.795 103.843 73.7836C95.5783 72.8341 86.1043 81.4055 88.9554 89.1584Z" fill="#FFE8A4"/>
<path d="M101.547 95.284C96.967 96.8256 90.7347 93.9966 88.9554 89.1584C86.1043 81.4055 95.5783 72.8341 103.843 73.7836C112.646 74.795 118.932 80.8103 116.562 89.3413C113.683 99.7048 101.547 95.284 101.547 95.284ZM101.547 95.284C106.126 93.7424 109.622 88.6961 106.587 85.2965C104.027 82.4292 98.0859 83.9318 97.5498 86.8041" stroke="#002D59" stroke-width="4" stroke-linecap="round"/>
<path d="M198.339 154.412C198.299 149.749 193.904 145.418 189.583 145.312C189.583 145.312 180.696 137.803 175.148 145.722C170.581 152.241 174.061 159.297 181.169 162.879C187.842 166.241 198.403 161.884 198.339 154.412Z" fill="#FFE8A4"/>
<path d="M189.583 145.312C193.904 145.418 198.299 149.749 198.339 154.412C198.403 161.884 187.842 166.241 181.169 162.879C174.061 159.297 170.581 152.241 175.148 145.722C180.696 137.803 189.583 145.312 189.583 145.312ZM189.583 145.312C185.262 145.207 180.798 148.416 182.328 152.244C183.62 155.473 189.075 156.032 190.393 153.756" stroke="#002D59" stroke-width="4" stroke-linecap="round"/>
<path d="M183.12 144.504C183.094 139.232 178.06 134.353 173.094 134.252C173.094 134.252 162.911 125.797 156.501 134.775C151.224 142.166 155.193 150.13 163.349 154.15C171.005 157.923 183.162 152.952 183.12 144.504Z" fill="#FFE8A4"/>
<path d="M173.094 134.252C178.06 134.353 183.094 139.232 183.12 144.504C183.162 152.952 171.005 157.923 163.349 154.15C155.193 150.13 151.224 142.166 156.501 134.775C162.911 125.797 173.094 134.252 173.094 134.252ZM173.094 134.252C168.128 134.151 162.983 137.798 164.726 142.12C166.197 145.765 172.465 146.375 173.989 143.796" stroke="#002D59" stroke-width="4" stroke-linecap="round"/>
<path d="M152.662 125.07C157.352 127.484 163.998 125.422 166.373 121.21C166.373 121.21 178.561 116.384 173.545 106.738C169.415 98.7981 160.522 98.5218 153.202 103.658C146.33 108.479 145.146 121.202 152.662 125.07Z" fill="#FFE8A4"/>
<path d="M166.373 121.21C163.998 125.422 157.352 127.484 152.662 125.07C145.146 121.202 146.33 108.479 153.202 103.658C160.522 98.5218 169.415 98.7981 173.545 106.738C178.561 116.384 166.373 121.21 166.373 121.21ZM166.373 121.21C168.748 116.998 167.88 110.9 163.242 110.398C159.331 109.975 155.905 115.068 157.492 117.567" stroke="#002D59" stroke-width="4" stroke-linecap="round"/>
<path d="M122.418 114.373C125.736 118.753 132.732 120.104 136.687 117.51C136.687 117.51 149.954 119.062 149.363 108.123C148.876 99.1176 140.784 94.6214 131.88 95.6703C123.52 96.6548 117.102 107.355 122.418 114.373Z" fill="#FFE8A4"/>
<path d="M136.687 117.51C132.732 120.104 125.736 118.753 122.418 114.373C117.102 107.355 123.52 96.6548 131.88 95.6703C140.784 94.6214 148.876 99.1176 149.363 108.123C149.954 119.062 136.687 117.51 136.687 117.51ZM136.687 117.51C140.642 114.915 142.393 109.1 138.323 106.439C134.891 104.194 129.598 107.067 130.017 110.038" stroke="#002D59" stroke-width="4" stroke-linecap="round"/>
<path d="M190.202 136.771C192.197 131.799 189.439 125.274 184.912 123.273C184.912 123.273 178.789 111.408 169.457 117.398C161.775 122.329 162.373 131.349 168.331 138.262C173.923 144.752 187.004 144.739 190.202 136.771Z" fill="#FFE8A4"/>
<path d="M184.912 123.273C189.439 125.274 192.197 131.799 190.202 136.771C187.004 144.739 173.923 144.752 168.331 138.262C162.373 131.349 161.775 122.329 169.457 117.398C178.789 111.408 184.912 123.273 184.912 123.273ZM184.912 123.273C180.385 121.272 174.259 122.731 174.206 127.468C174.161 131.463 179.69 134.443 182.079 132.6" stroke="#002D59" stroke-width="4" stroke-linecap="round"/>
<path d="M189.242 177.247C192.745 173.436 192.296 166.534 188.705 163.115C188.705 163.115 186.85 150.171 176.13 152.31C167.305 154.071 164.909 162.475 168.232 170.862C171.351 178.736 183.629 183.352 189.242 177.247Z" fill="#FFE8A4"/>
<path d="M188.705 163.115C192.296 166.534 192.745 173.436 189.242 177.247C183.629 183.352 171.351 178.736 168.232 170.862C164.909 162.475 167.305 154.071 176.13 152.31C186.85 150.171 188.705 163.115 188.705 163.115ZM188.705 163.115C185.113 159.696 178.886 158.852 177.283 163.136C175.931 166.75 180.142 171.413 182.988 170.584" stroke="#002D59" stroke-width="4" stroke-linecap="round"/>
<path d="M199.679 157.135C193.99 157.873 187.876 153.598 186.925 148.697C186.925 148.697 176.083 139.843 184.677 132.198C191.752 125.904 201.012 128.679 206.728 136.169C212.095 143.2 208.796 155.953 199.679 157.135Z" fill="#FFE8A4"/>
<path d="M186.925 148.697C187.876 153.598 193.99 157.873 199.679 157.135C208.796 155.953 212.095 143.2 206.728 136.169C201.012 128.679 191.752 125.904 184.677 132.198C176.083 139.843 186.925 148.697 186.925 148.697ZM186.925 148.697C185.974 143.796 189.035 138.176 193.991 139.275C198.171 140.202 199.89 146.319 197.368 148.2" stroke="#002D59" stroke-width="4" stroke-linecap="round"/>
<path d="M193.5 115.895L195.62 117.079L196.367 114.778C202.567 95.6776 202.768 82.884 198.51 73.1731C194.27 63.5052 185.787 57.3508 175.912 51.127C165.98 44.8676 154.433 39.0056 142.763 38.7915C130.857 38.5731 119.234 44.2254 109.286 60.025L108.264 61.6473L109.849 62.7436C120.435 70.0667 130.876 77.5012 138.672 83.1062C142.57 85.9084 145.805 88.2525 148.066 89.8959C149.196 90.7176 150.083 91.364 150.687 91.8049C150.989 92.0253 151.22 92.1943 151.375 92.3082L151.552 92.437L151.596 92.4696L151.607 92.4777L151.61 92.4797L151.61 92.4802C151.611 92.4803 151.611 92.4803 152.785 90.8682L151.611 92.4803L151.711 92.5538L151.819 92.6143L193.5 115.895Z" fill="#13A0F0" stroke="#002D59" stroke-width="4"/>
<path d="M78.7853 58.8769C82.6528 62.5986 95.3917 72.1952 108.997 81.8865C122.642 91.6051 137.418 101.603 145.456 106.132C158.434 113.445 172.737 121.036 185.185 127.566C188.762 129.443 192.183 131.23 195.375 132.897C203.311 137.044 209.829 140.45 213.812 142.647C215.842 143.766 217.883 143.813 219.579 142.758C221.123 141.798 222.026 140.138 222.488 138.569C222.959 136.966 223.063 135.158 222.749 133.539C222.445 131.975 221.663 130.204 219.995 129.267C215.22 126.585 209.79 123.744 203.651 120.532C190.968 113.896 175.259 105.676 156.049 94.0114C140.493 84.5654 118.155 68.7842 102.716 57.8768C96.7782 53.6815 91.8606 50.2072 88.742 48.0918C85.8142 46.1059 83.178 45.0119 80.9286 44.7703C78.6494 44.5256 76.5514 45.1631 75.3061 46.8965C74.1087 48.5631 74.08 50.7264 74.7117 52.734C75.3531 54.7725 76.7325 56.9014 78.7853 58.8769Z" fill="#13A0F0" stroke="#002D59" stroke-width="4"/>
<path d="M196.637 95.5584L196.866 94.4181C199.601 94.1787 202.283 93.4006 204.275 91.3455C206.283 89.2736 207.266 86.2409 207.33 82.2066L207.374 79.484C209.244 78.6384 210.966 77.5487 212.413 76.1391C215.136 73.4882 216.729 69.8585 216.684 65.0969L216.662 62.6874L214.9 63.0365C215.378 62.8767 215.854 62.7128 216.325 62.5447C222.308 60.4128 227.889 57.5471 231.774 53.7048C235.728 49.7944 237.957 44.8217 236.969 38.7647L236.486 35.8083L233.941 37.3903C232.386 38.3569 229.171 39.9044 225.008 41.6318C231.593 38.458 237.735 34.5215 242.302 29.59C247.622 23.844 250.817 16.7211 250.028 8.01273C249.968 7.35104 249.623 6.69439 248.975 6.2888C248.442 5.95475 247.897 5.91585 247.591 5.91773C246.973 5.92153 246.322 6.11119 245.792 6.29558C244.656 6.69163 243.128 7.41635 241.376 8.32533C237.838 10.1607 233.002 12.9503 227.737 15.9957C227.561 16.0972 227.385 16.1991 227.208 16.3013C216.7 22.379 204.623 29.3646 196.959 32.3792C191.106 34.6819 187.08 35.347 183.796 35.8894C182.757 36.061 181.792 36.2204 180.867 36.4156C178.927 36.8248 177.119 37.4128 175.408 38.7206C173.721 40.0109 172.29 41.8781 170.842 44.5687C168.651 48.6375 168.546 53.2348 168.722 57.7846C168.76 58.7841 168.813 59.7842 168.865 60.7883C169.058 64.4922 169.255 68.2496 168.783 72.2248C168.545 74.2323 167.502 78.4047 166.465 82.2271C165.956 84.1049 165.462 85.8485 165.096 87.1232C164.913 87.7603 164.761 88.2796 164.656 88.6392C164.604 88.8189 164.562 88.9588 164.534 89.0533L164.503 89.1607L164.495 89.1877L164.493 89.1943L164.492 89.1958L164.492 89.1962L166.409 89.7639L164.492 89.1962L164.127 90.4278L165.093 91.2718L174.153 99.1804C177.786 102.876 182.591 105.025 186.991 104.723C189.234 104.568 191.382 103.769 193.123 102.192C194.863 100.616 196.07 98.3785 196.637 95.5584ZM193.926 82.3412C195.796 82.2196 197.688 82.0258 199.534 81.723C197.677 82.1076 195.804 82.3343 193.926 82.3412Z" fill="#002D59" stroke="#002D59" stroke-width="4"/>
<path d="M214.685 65.1179C204.574 67.121 189.795 72.3976 182.077 66.5092C197.607 66.2759 238.453 60.2857 234.995 39.0891C228.281 43.2626 194.58 56.6146 181.744 52.9763C195.45 49.1485 250.951 40.3786 248.037 8.19544C247.762 5.15548 213.625 27.9716 197.689 34.2408C181.862 40.4668 178.114 35.2754 172.602 45.5156C168.78 52.6147 172.016 61.9406 170.769 72.4581C170.251 76.8258 166.409 89.7639 166.409 89.7639L175.527 97.7238C182.197 104.562 192.685 105.08 194.677 95.1663C190.232 93.9453 183.092 96.596 178.844 91.3799C191.286 91.4396 205.09 97.183 205.331 82.1766C197.692 84.8026 189.128 85.8811 180.886 80.4674C191.897 80.5113 214.844 82.1465 214.685 65.1179Z" fill="#ECECEC"/>
<circle cx="17" cy="17" r="15" transform="matrix(-1 0 0 1 188 80.0001)" fill="#F6CB4E" stroke="#002D59" stroke-width="4"/>
<circle cx="7" cy="7" r="7" transform="matrix(-1 0 0 1 178 90.0002)" fill="#ECECEC" stroke="#002D59" stroke-width="3"/>
</g>
</svg>
